<svg width="164" height="54" viewBox="0 0 164 54" fill="none" xmlns="http://www.w3.org/2000/svg">
<path fill-rule="evenodd" clip-rule="evenodd" d="M100.864 31.9602C100.193 31.6827 99.6554 30.9891 99.6554 29.8794V13.2329C99.6554 12.1232 98.5808 11.1521 97.5061 11.2908C96.5658 11.4296 96.0284 12.2619 96.0284 13.2329V30.573C96.0284 31.4053 96.1628 32.0989 96.2971 32.7925C96.4314 33.4861 96.8344 33.9023 97.2374 34.4571C97.6404 34.8733 98.1778 35.1507 98.9838 35.4282C99.2525 35.5669 99.5211 35.5669 99.9241 35.7056C100.999 35.8443 101.939 35.1507 102.073 34.1797C102.073 33.2087 101.67 32.3763 100.864 31.9602Z" fill="black"/>
<path fill-rule="evenodd" clip-rule="evenodd" d="M114.111 35.5242C114.781 35.3834 115.451 35.2427 115.988 35.102C116.524 34.9613 116.792 34.5391 116.792 33.9762V20.6076C116.792 19.4818 115.988 18.6375 114.915 18.6375C113.843 18.6375 113.039 19.4818 113.039 20.6076V32.1468C112.771 32.1468 110.894 32.4283 110.492 32.4283C109.285 32.4283 108.347 32.0061 107.945 31.3025C107.409 30.5989 107.141 29.1916 107.141 27.503V20.6076C107.141 19.4818 106.337 18.6375 105.264 18.6375C104.192 18.6375 103.388 19.4818 103.388 20.6076V28.0659C103.388 29.1916 103.522 30.1767 103.656 31.1618C103.924 32.1468 104.192 32.9911 104.728 33.554C105.264 34.2577 105.934 34.8205 106.739 35.102C107.543 35.5242 108.615 35.6649 109.956 35.6649C111.698 35.8056 112.905 35.6649 114.111 35.5242Z" fill="black"/>
<path fill-rule="evenodd" clip-rule="evenodd" d="M133.185 33.1467C133.05 32.1975 132.24 31.6551 131.294 31.9263C130.483 32.0619 129.538 32.1975 128.727 32.1975C127.241 32.1975 126.025 31.7907 125.215 31.1127C124.404 30.4347 123.999 29.3499 123.864 28.1295H133.32C133.861 28.1295 134.401 27.5871 134.401 27.0447C134.401 26.9091 134.401 26.7735 134.401 26.7735C134.401 24.0615 133.726 22.0275 132.51 20.6715C131.294 19.3155 129.538 18.6375 127.376 18.6375C126.43 18.6375 125.485 18.7731 124.674 19.1799C123.728 19.5867 122.918 20.1291 122.242 20.8071C121.567 21.4851 121.027 22.4343 120.621 23.5191C120.216 24.6039 119.946 25.8243 119.946 27.1803C119.946 28.4007 120.081 29.4855 120.486 30.5703C120.756 31.5195 121.297 32.4687 121.972 33.2824C122.648 34.096 123.458 34.6384 124.539 35.0452C125.62 35.452 126.836 35.7232 128.187 35.7232C128.727 35.7232 129.268 35.7232 129.808 35.5876C130.348 35.5876 130.889 35.452 131.294 35.3164C131.429 35.3164 131.699 35.1808 132.105 35.1808C132.915 34.6384 133.32 33.8248 133.185 33.1467ZM124.269 23.9259C124.404 23.5191 124.674 23.1123 124.944 22.7055C125.215 22.2987 125.62 22.0275 126.025 21.8919C126.43 21.6207 126.971 21.6207 127.511 21.6207C128.052 21.6207 128.592 21.7563 128.997 21.8919C129.403 22.0275 129.673 22.2987 129.943 22.7055C130.213 22.9767 130.483 23.3835 130.618 23.9259C130.754 24.3327 130.889 24.8751 130.889 25.4175H123.999C123.999 24.8751 123.999 24.4683 124.269 23.9259Z" fill="black"/>
<path fill-rule="evenodd" clip-rule="evenodd" d="M150.697 33.6225V26.2C150.697 25.0796 150.56 24.0993 150.423 23.1189C150.149 22.1386 149.876 21.4384 149.329 20.7382C148.782 20.0379 148.098 19.6178 147.14 19.1976C146.183 18.7775 145.089 18.6375 143.858 18.6375C142.49 18.6375 141.122 18.7775 140.028 18.9175C139.344 19.0576 138.66 19.1976 138.113 19.3377C137.566 19.4777 137.292 19.8979 137.292 20.4581V33.7625C137.292 34.8829 138.113 35.7232 139.207 35.7232C140.301 35.7232 141.122 34.8829 141.122 33.7625V22.1386C141.396 22.1386 141.806 21.9986 142.216 21.9986C142.763 21.9986 143.174 21.8585 143.721 21.8585C144.405 21.8585 144.952 21.9986 145.362 22.1386C145.773 22.2787 146.183 22.5588 146.456 22.9789C146.73 23.399 146.867 23.8192 147.004 24.5194C147.14 25.0796 147.14 25.9199 147.14 26.7602V33.6225C147.14 34.7428 147.961 35.5831 149.055 35.5831C149.876 35.4431 150.697 34.6028 150.697 33.6225Z" fill="black"/>
<path fill-rule="evenodd" clip-rule="evenodd" d="M162.689 35.7067C163.531 35.5711 163.952 34.7576 163.811 33.9441C163.671 33.1306 162.829 32.5882 161.987 32.7238C161.426 32.8594 160.865 32.8594 160.444 32.8594C159.462 32.8594 158.761 32.5882 158.34 32.0459C157.919 31.5036 157.638 30.5545 157.638 29.3342V22.8261H161.987C162.829 22.8261 163.531 22.1482 163.531 21.3347C163.531 20.5212 162.829 19.8433 161.987 19.8433H157.638V17.1316C157.638 16.0469 156.516 15.0978 155.394 15.2334C154.412 15.369 153.85 16.1825 153.85 17.1316V29.4698C153.85 30.5545 153.991 31.5036 154.131 32.3171C154.271 33.1306 154.692 33.8085 155.113 34.4864C155.534 35.1643 156.235 35.5711 157.077 35.8423C157.919 36.1134 158.901 36.249 160.023 36.249C160.725 36.1134 161.847 35.9778 162.689 35.7067Z" fill="black"/>
<path fill-rule="evenodd" clip-rule="evenodd" d="M91.474 5.58684C92.5696 4.62906 93.8021 4.21858 95.0346 3.94493C94.8977 3.94493 94.7607 3.94493 94.4868 4.08175C94.6238 4.08175 94.7607 4.08175 94.8977 3.94493C95.7194 3.8081 96.4041 3.12397 96.5411 2.30301V2.16619C96.678 1.07158 95.7194 0.113794 94.4868 0.25062C92.5696 0.524273 90.5153 1.34523 89.0089 2.71349C86.8177 4.62906 85.4482 7.5024 85.3113 10.3758V16.2593H83.6679C82.5723 16.2593 81.7506 17.0802 81.7506 18.1748C81.7506 19.2695 82.5723 20.0904 83.6679 20.0904H85.3113V26.1108C85.1744 28.0263 84.3527 29.6682 82.9832 30.8997C81.8876 31.8575 80.6551 32.4048 79.2856 32.5416C78.4639 32.6784 77.7791 33.3625 77.6422 34.1835V34.3203C77.5052 35.4149 78.6008 36.3727 79.6964 36.2359C79.8334 36.2359 79.8334 36.2359 79.9703 36.2359C81.8876 35.9622 83.8049 35.1413 85.4482 33.773C87.6394 31.8575 89.0089 29.1209 89.1459 26.1108V19.9536H90.7892C91.8848 19.9536 92.7065 19.1326 92.7065 18.038C92.7065 16.9434 91.8848 16.1225 90.7892 16.1225H89.1459V10.3758C89.2828 8.59701 90.1045 6.81827 91.474 5.58684Z" fill="black"/>
<path fill-rule="evenodd" clip-rule="evenodd" d="M114.371 40.0657C113.935 40.0657 113.5 39.929 113.064 39.929C111.757 39.929 110.885 40.2025 110.304 40.8865C109.723 41.5705 109.433 42.3912 109.433 43.4856V52.5139C109.433 52.9243 109.868 53.3347 110.304 53.3347C110.74 53.3347 111.176 52.9243 111.176 52.5139V45.6743H114.081C114.516 45.6743 114.807 45.4007 114.807 44.9903C114.807 44.5799 114.516 44.3063 114.081 44.3063H111.176V43.4856C111.176 42.8016 111.321 42.2544 111.611 41.8441C111.902 41.4337 112.483 41.2969 113.209 41.2969C113.354 41.2969 113.79 41.2969 114.081 41.4337C114.516 41.5705 114.807 41.2969 114.952 40.8865C114.952 40.4761 114.807 40.2025 114.371 40.0657Z" fill="black"/>
<path fill-rule="evenodd" clip-rule="evenodd" d="M122.347 45.1243C121.967 44.7068 121.586 44.4285 121.206 44.1501C120.698 43.8718 120.19 43.8718 119.683 43.8718C119.175 43.8718 118.668 44.011 118.16 44.1501C117.653 44.4285 117.272 44.7068 117.018 45.1243C116.638 45.5417 116.384 46.0984 116.257 46.655C116.13 47.2117 116.003 47.9075 116.003 48.6033C116.003 49.2991 116.13 49.9948 116.257 50.5515C116.384 51.1081 116.765 51.6648 117.018 52.0822C117.399 52.4997 117.78 52.778 118.16 53.0564C118.668 53.3347 119.175 53.3347 119.683 53.3347C120.19 53.3347 120.698 53.1955 121.206 53.0564C121.713 52.778 122.094 52.4997 122.347 52.0822C122.728 51.6648 122.982 51.1081 123.109 50.5515C123.236 49.9948 123.363 49.2991 123.363 48.6033C123.363 47.9075 123.236 47.2117 123.109 46.655C122.982 46.0984 122.728 45.5417 122.347 45.1243ZM121.332 51.1081C120.952 51.6648 120.317 51.9431 119.683 51.9431C118.922 51.9431 118.414 51.6648 118.033 51.1081C117.653 50.5515 117.399 49.7165 117.399 48.6033C117.399 47.6291 117.653 46.7942 118.033 46.0984C118.414 45.5417 119.049 45.2634 119.683 45.2634C120.444 45.2634 120.952 45.5417 121.332 46.0984C121.713 46.655 121.967 47.49 121.967 48.6033C121.967 49.5774 121.713 50.4123 121.332 51.1081Z" fill="black"/>
<path fill-rule="evenodd" clip-rule="evenodd" d="M130.291 44.0052C130.013 44.0052 129.597 43.8718 129.181 43.8718C128.488 43.8718 127.933 43.8718 127.378 44.0052C126.962 44.1386 126.684 44.1386 126.407 44.272C126.13 44.4054 125.991 44.5388 125.991 44.8056V52.0086C125.991 52.4088 126.407 52.809 126.823 52.809C127.239 52.809 127.655 52.4088 127.655 52.0086V45.4725C127.794 45.4725 127.933 45.4725 128.21 45.3391C128.488 45.3391 128.765 45.2057 129.042 45.2057C129.32 45.2057 129.736 45.2057 130.152 45.3391C130.568 45.3391 130.846 45.2057 130.984 44.8056C130.846 44.4054 130.707 44.0052 130.291 44.0052Z" fill="black"/>
<path fill-rule="evenodd" clip-rule="evenodd" d="M162.619 44.0052C162.341 44.0052 161.925 43.8718 161.509 43.8718C160.815 43.8718 160.26 43.8718 159.706 44.0052C159.289 44.1386 159.012 44.1386 158.735 44.272C158.457 44.4054 158.318 44.5388 158.318 44.8056V52.0086C158.318 52.4088 158.735 52.809 159.151 52.809C159.567 52.809 159.983 52.4088 159.983 52.0086V45.4725C160.122 45.4725 160.26 45.4725 160.538 45.3391C160.815 45.3391 161.093 45.2057 161.37 45.2057C161.648 45.2057 162.064 45.2057 162.48 45.3391C162.896 45.3391 163.173 45.2057 163.312 44.8056C163.312 44.4054 163.035 44.0052 162.619 44.0052Z" fill="black"/>
<path fill-rule="evenodd" clip-rule="evenodd" d="M135.782 43.8718C135.247 43.8718 134.846 44.009 134.31 44.1461C133.775 44.2833 133.374 44.6947 133.106 44.969C132.705 45.3804 132.437 45.7918 132.303 46.4775C132.036 47.0261 132.036 47.7118 132.036 48.5347C132.036 49.2204 132.17 49.9061 132.303 50.4547C132.437 51.0033 132.705 51.5518 133.106 51.9633C133.508 52.3747 133.909 52.649 134.444 52.9233C134.979 53.1975 135.648 53.3347 136.318 53.3347C137.12 53.3347 137.789 53.1975 138.325 53.0604C138.592 52.9233 138.86 52.649 138.86 52.2375C138.86 51.8261 138.458 51.5518 138.057 51.689C137.656 51.8261 137.12 51.9633 136.585 51.9633C135.648 51.9633 134.979 51.689 134.444 51.2775C134.043 50.729 133.775 50.0433 133.641 49.2204H139.127C139.261 49.2204 139.395 49.0833 139.395 48.9461C139.395 48.2604 139.261 46.3404 138.458 45.2433C137.789 44.1461 136.987 43.8718 135.782 43.8718ZM133.508 47.7118C133.508 47.4375 133.641 47.1633 133.775 46.7518C133.909 46.4775 134.043 46.2033 134.177 45.929C134.31 45.6547 134.578 45.5175 134.846 45.3804C135.113 45.2433 135.381 45.1061 135.782 45.1061C136.451 45.1061 136.853 45.3804 137.254 45.7918C137.656 46.2033 137.789 46.889 137.789 47.5747H133.508V47.7118Z" fill="black"/>
<path fill-rule="evenodd" clip-rule="evenodd" d="M153.129 43.8718C152.594 43.8718 152.192 44.009 151.657 44.1461C151.122 44.2833 150.72 44.6947 150.453 44.969C150.051 45.3804 149.784 45.7918 149.65 46.4775C149.382 47.0261 149.382 47.7118 149.382 48.5347C149.382 49.2204 149.516 49.9061 149.65 50.4547C149.784 51.0033 150.051 51.5518 150.453 51.9633C150.854 52.3747 151.256 52.649 151.791 52.9233C152.326 53.1975 152.995 53.3347 153.664 53.3347C154.467 53.3347 155.136 53.1975 155.671 53.0604C155.939 52.9233 156.206 52.649 156.206 52.2375C156.206 51.8261 155.805 51.5518 155.404 51.689C155.002 51.8261 154.467 51.9633 153.932 51.9633C152.995 51.9633 152.326 51.689 151.791 51.2775C151.389 50.729 151.122 50.0433 150.988 49.2204H156.474C156.608 49.2204 156.742 49.0833 156.742 48.9461C156.742 48.2604 156.608 46.3404 155.805 45.2433C155.136 44.1461 154.333 43.8718 153.129 43.8718ZM150.854 47.7118C150.854 47.4375 150.988 47.1633 151.122 46.7518C151.256 46.4775 151.389 46.2033 151.523 45.929C151.657 45.6547 151.925 45.5175 152.192 45.3804C152.46 45.2433 152.727 45.1061 153.129 45.1061C153.798 45.1061 154.199 45.3804 154.601 45.7918C155.002 46.2033 155.136 46.889 155.136 47.5747H150.854V47.7118Z" fill="black"/>
<path fill-rule="evenodd" clip-rule="evenodd" d="M147.602 43.8718C147.181 43.8718 146.9 44.1468 146.76 44.4218C146.62 44.8343 146.48 45.2468 146.48 45.6593C146.339 46.3467 146.059 46.8967 145.918 47.5842C145.638 48.2716 145.497 48.8216 145.217 49.3716C144.936 49.9216 144.796 50.4716 144.656 50.884C144.515 50.4716 144.235 49.9216 144.094 49.3716C143.814 48.8216 143.673 48.1342 143.393 47.5842C143.112 46.8967 142.972 46.3467 142.832 45.6593C142.691 45.2468 142.551 44.8343 142.551 44.4218C142.411 44.1468 142.13 43.8718 141.85 43.8718H141.709C141.148 43.8718 140.867 44.2843 141.008 44.8343C141.429 46.2092 141.85 47.4467 142.27 48.6841C142.832 49.9216 143.253 51.159 143.673 52.1215C143.814 52.534 144.235 52.809 144.656 52.809C145.077 52.809 145.497 52.534 145.638 52.1215C146.059 51.0215 146.62 49.9216 147.041 48.6841C147.462 47.4467 148.023 46.0717 148.304 44.8343C148.444 44.4218 148.023 43.8718 147.602 43.8718Z" fill="black"/>
<path fill-rule="evenodd" clip-rule="evenodd" d="M65.665 34.6981C68.1194 31.1845 69.4829 26.86 69.4829 22.2653C69.4829 21.8599 69.4829 21.5896 69.4829 21.1842C69.4829 20.9139 69.4829 20.6436 69.4829 20.5085C69.4829 20.3733 69.4829 20.2382 69.4829 20.103C69.4829 19.9679 69.4829 19.8328 69.4829 19.5625C69.4829 19.2922 69.4829 19.1571 69.3466 18.8868C69.3466 18.7516 69.3466 18.6165 69.3466 18.6165C69.3466 18.3462 69.2102 18.0759 69.2102 17.8057V17.6705C69.2102 17.4003 69.0739 16.9948 68.9375 16.7246C66.4831 7.39994 58.0291 0.507828 47.9388 0.237549H22.1677C10.3048 0.237549 0.75997 9.69731 0.623615 21.4544V21.995C0.48726 34.1575 10.1685 44.0227 22.3041 44.293L35.8032 44.4281C40.5756 44.4281 45.0754 46.4552 48.2115 49.9688C48.3479 50.104 48.4842 50.2391 48.6206 50.5094C49.4387 51.7257 50.8023 52.4014 52.4385 52.2662C53.6657 52.1311 54.6202 51.4554 55.302 50.5094L62.1198 40.1037L65.665 34.6981Z" fill="url(#paint0_linear_1159_344369)"/>
<path d="M46.259 12.4649C43.4029 12.4649 40.6829 13.6869 38.7789 15.7236L35.2428 19.797L31.7067 15.7236V15.5878C29.8027 13.5511 27.0826 12.3291 24.2266 12.3291C18.5145 12.3291 14.0264 16.9456 14.0264 22.5126C14.0264 28.2154 18.6505 32.832 24.2266 32.832C27.0826 32.832 29.8027 31.6099 31.7067 29.5732L35.3788 25.364C39.1869 29.709 39.1869 29.709 39.3229 29.8448C41.2269 31.7457 43.8109 32.832 46.531 32.832C52.2431 32.832 56.8672 28.2154 56.8672 22.5126C56.5952 17.0814 51.9711 12.4649 46.259 12.4649ZM28.8507 27.265C27.6266 28.6228 25.8586 29.3017 24.0906 29.3017C20.4185 29.3017 17.5624 26.3145 17.5624 22.7842C17.5624 19.1181 20.5545 16.2667 24.0906 16.2667C25.8586 16.2667 27.6266 16.9456 28.8507 18.3034L32.7947 22.7842L28.8507 27.265ZM46.259 29.3017C44.491 29.3017 42.8589 28.6228 41.6349 27.4007C41.3629 27.1292 39.3229 24.6851 37.5548 22.6484L41.4989 18.1677C42.7229 16.8099 44.491 16.131 46.259 16.131C49.9311 16.131 52.7871 19.1181 52.7871 22.6484C52.7871 26.3145 49.9311 29.3017 46.259 29.3017Z" fill="white"/>
<path fill-rule="evenodd" clip-rule="evenodd" d="M40.5978 28.487C41.2831 27.8081 41.2831 26.7218 40.7348 25.9072C39.9125 24.9567 38.816 23.7347 37.8566 22.6484L41.8313 18.1677C43.0648 16.8099 44.8466 16.131 46.6284 16.131C47.9989 16.131 49.2325 16.5383 50.1919 17.2172C50.0548 17.0814 49.9178 17.0814 49.7807 16.9456C49.9178 16.9456 50.0548 17.0814 50.0548 17.0814C50.7401 17.4888 51.6995 17.4888 52.2478 16.8099L52.3848 16.6741C53.2072 15.8594 53.0701 14.6374 52.1107 13.9585C50.466 12.8722 48.5472 12.3291 46.4913 12.3291C43.6131 12.3291 40.8719 13.5511 38.9531 15.5878L35.3895 19.6613L31.826 15.5878L32.6484 16.5383C31.9631 15.7236 30.7295 15.7236 29.9072 16.4025C29.2219 17.0814 29.2219 18.0319 29.7701 18.8466L32.9225 22.5126L28.9478 26.9934C27.7143 28.3512 25.9325 29.0301 24.1507 29.0301C22.7801 29.0301 21.5466 28.6228 20.4501 27.9439C19.7649 27.5365 18.8054 27.5365 18.1201 28.2154L17.9831 28.3512C17.1607 29.1659 17.2978 30.3879 18.2572 31.0668L18.3943 31.2026C20.039 32.2888 21.9578 32.832 24.0137 32.832C26.8919 32.832 29.6331 31.6099 31.5519 29.5732L35.2525 25.364C36.486 26.7218 37.3084 27.6723 37.8566 28.3512C38.5419 29.3017 39.7754 29.3017 40.5978 28.487Z" fill="#269276"/>
<path fill-rule="evenodd" clip-rule="evenodd" d="M65.665 34.6981C68.1194 31.1845 69.4829 26.86 69.4829 22.2653C69.4829 21.8599 69.4829 21.5896 69.4829 21.1842C69.4829 20.9139 69.4829 20.6436 69.4829 20.5085C69.4829 20.3733 69.4829 20.2382 69.4829 20.103C69.4829 19.9679 69.4829 19.8328 69.4829 19.5625C69.4829 19.2922 69.4829 19.1571 69.3466 18.8868C69.3466 18.7516 69.3466 18.6165 69.3466 18.6165C69.3466 18.3462 69.2102 18.0759 69.2102 17.8057V17.6705C69.2102 17.4003 69.0739 16.9948 68.9375 16.7246C66.4831 7.39994 58.0291 0.507828 47.9388 0.237549H22.1677C10.3048 0.237549 0.75997 9.69731 0.623615 21.4544V21.995C0.48726 34.1575 10.1685 44.0227 22.3041 44.293L35.8032 44.4281C40.5756 44.4281 45.0754 46.4552 48.2115 49.9688C48.3479 50.104 48.4842 50.2391 48.6206 50.5094C49.4387 51.7257 50.8023 52.4014 52.4385 52.2662C53.6657 52.1311 54.6202 51.4554 55.302 50.5094L62.1198 40.1037L65.665 34.6981Z" fill="#74E09A"/>
<path d="M46.259 12.4649C43.4029 12.4649 40.6829 13.6869 38.7789 15.7236L35.2428 19.797L31.7067 15.7236V15.5878C29.8027 13.5511 27.0826 12.3291 24.2266 12.3291C18.5145 12.3291 14.0264 16.9456 14.0264 22.5126C14.0264 28.2154 18.6505 32.832 24.2266 32.832C27.0826 32.832 29.8027 31.6099 31.7067 29.5732L35.3788 25.364C39.1869 29.709 39.1869 29.709 39.3229 29.8448C41.2269 31.7457 43.8109 32.832 46.531 32.832C52.2431 32.832 56.8672 28.2154 56.8672 22.5126C56.5952 17.0814 51.9711 12.4649 46.259 12.4649ZM28.8507 27.265C27.6266 28.6228 25.8586 29.3017 24.0906 29.3017C20.4185 29.3017 17.5624 26.3145 17.5624 22.7842C17.5624 19.1181 20.5545 16.2667 24.0906 16.2667C25.8586 16.2667 27.6266 16.9456 28.8507 18.3034L32.7947 22.7842L28.8507 27.265ZM46.259 29.3017C44.491 29.3017 42.8589 28.6228 41.6349 27.4007C41.3629 27.1292 39.3229 24.6851 37.5548 22.6484L41.4989 18.1677C42.7229 16.8099 44.491 16.131 46.259 16.131C49.9311 16.131 52.7871 19.1181 52.7871 22.6484C52.7871 26.3145 49.9311 29.3017 46.259 29.3017Z" fill="white"/>
<path fill-rule="evenodd" clip-rule="evenodd" d="M40.5978 28.487C41.2831 27.8081 41.2831 26.7218 40.7348 25.9072C39.9125 24.9567 38.816 23.7347 37.8566 22.6484L41.8313 18.1677C43.0648 16.8099 44.8466 16.131 46.6284 16.131C47.9989 16.131 49.2325 16.5383 50.1919 17.2172C50.0548 17.0814 49.9178 17.0814 49.7807 16.9456C49.9178 16.9456 50.0548 17.0814 50.0548 17.0814C50.7401 17.4888 51.6995 17.4888 52.2478 16.8099L52.3848 16.6741C53.2072 15.8594 53.0701 14.6374 52.1107 13.9585C50.466 12.8722 48.5472 12.3291 46.4913 12.3291C43.6131 12.3291 40.8719 13.5511 38.9531 15.5878L35.3895 19.6613L31.826 15.5878L32.6484 16.5383C31.9631 15.7236 30.7295 15.7236 29.9072 16.4025C29.2219 17.0814 29.2219 18.0319 29.7701 18.8466L32.9225 22.5126L28.9478 26.9934C27.7143 28.3512 25.9325 29.0301 24.1507 29.0301C22.7801 29.0301 21.5466 28.6228 20.4501 27.9439C19.7649 27.5365 18.8054 27.5365 18.1201 28.2154L17.9831 28.3512C17.1607 29.1659 17.2978 30.3879 18.2572 31.0668L18.3943 31.2026C20.039 32.2888 21.9578 32.832 24.0137 32.832C26.8919 32.832 29.6331 31.6099 31.5519 29.5732L35.2525 25.364C36.486 26.7218 37.3084 27.6723 37.8566 28.3512C38.5419 29.3017 39.7754 29.3017 40.5978 28.487Z" fill="#269276"/>
<defs>
<linearGradient id="paint0_linear_1159_344369" x1="35.0366" y1="0.955409" x2="35.0366" y2="53.2456" gradientUnits="userSpaceOnUse">
<stop offset="0.000500308" stop-color="#77C794"/>
<stop offset="1" stop-color="#5BB68C"/>
</linearGradient>
</defs>
</svg>
