<?xml version="1.0" standalone="yes"?>
<svg xmlns="http://www.w3.org/2000/svg" width="200" height="200">
<path style="fill:#fdfefe; stroke:none;" d="M0 0L0 200L200 200L200 0L0 0z"/>
<path style="fill:#62d3dd; stroke:none;" d="M64 49L64 50L71 50L64 49M130 49L130 50L136 50L130 49M58 50L58 51L61 51L58 50z"/>
<path style="fill:#06c8d8; stroke:none;" d="M67 144L66 141L70 142L70 141C68.7335 137.692 71.3558 135.91 74 134L71 140L77 137L77 136L71 131C67.2134 117.509 49.5445 111.469 44.5594 98C39.2856 83.7507 51.0462 67.1405 66 66.0972C73.893 65.5465 79.7369 69.9131 86 74L93 58C83.6352 53.0726 74.8411 49.2956 64 50.0903C41.9408 51.7073 24.4393 73.0574 27.2894 95C28.8635 107.12 35.5858 116.544 44.0008 125C49.1485 130.173 59.3206 144.147 67 144z"/>
<path style="fill:#62d3dd; stroke:none;" d="M74 50L74 51L77 51L74 50M123 50L123 51L126 51L123 50z"/>
<path style="fill:#06c8d8; stroke:none;" d="M126 50.4637C94.7021 55.996 81.5322 94.0374 102.468 117.91C110.893 127.517 125.398 132.544 138 130.561C143.002 129.774 149.12 125.741 153.996 126.118C161.196 126.675 163.699 137.74 171.995 136.162C188.75 132.974 167.794 116.906 168.272 111C168.916 103.054 173.496 96.5442 172.91 88C171.308 64.6005 149.466 46.3159 126 50.4637z"/>
<path style="fill:#62d3dd; stroke:none;" d="M139 50L139 51L142 51L139 50M55.6667 51.3333L56.3333 51.6667L55.6667 51.3333M78.6667 51.3333L79.3333 51.6667L78.6667 51.3333M120.667 51.3333L121.333 51.6667L120.667 51.3333M144.667 51.3333L145.333 51.6667L144.667 51.3333M52.6667 52.3333L53.3333 52.6667L52.6667 52.3333M82 52L83 53L82 52M117 52L118 53L117 52M147 52L148 53L147 52M50 53L51 54L50 53M84.6667 53.3333L85.3333 53.6667L84.6667 53.3333M115 53L116 54L115 53M149 53L150 54L149 53M48 54L49 55L48 54M86.6667 54.3333L87.3333 54.6667L86.6667 54.3333M112.667 54.3333L113.333 54.6667L112.667 54.3333M151 54L152 55L151 54M46.6667 55.3333L47.3333 55.6667L46.6667 55.3333M88 55L89 56L88 55M111 55L112 56L111 55M153 55L154 56L153 55M45 56L46 57L45 56M90 56L91 57L90 56M109.667 56.3333L110.333 56.6667L109.667 56.3333M154.667 56.3333L155.333 56.6667L154.667 56.3333M43 57L44 58L43 57M91 57L92 58L91 57M108 57L109 58L108 57M156 57L157 58L156 57M42 58L43 59L42 58M107 58L108 59L107 58M157 58L158 59L157 58M41 59L42 60L41 59M93.3333 59.6667L93.6667 60.3333L93.3333 59.6667M106 59L107 60L106 59M158 59L159 60L158 59M40 60L41 61L40 60M104 60L105 61L104 60M160 60L160 62L162 62L160 60M39 61L40 62L39 61M92 61L93 62L92 61M103 61L104 62L103 61M38 62L39 63L38 62M91.3333 62.6667L91.6667 63.3333L91.3333 62.6667M162.333 62.6667L162.667 63.3333L162.333 62.6667M37 63L38 64L37 63M90 64L91 65L90 64M35 65L36 66L35 65M100 65L101 66L100 65M164 65L165 66L164 65M34 66L35 67L34 66M62 66L62 67L73 67L62 66M89 66L90 67L89 66M99 66L100 67L99 66M127 66L127 67L138 67L127 66M165 66L166 67L165 66M59.6667 67.3333L60.3333 67.6667L59.6667 67.3333M74.6667 67.3333L75.3333 67.6667L74.6667 67.3333M88.3333 67.6667L88.6667 68.3333L88.3333 67.6667M98.3333 67.6667L98.6667 68.3333L98.3333 67.6667M124.667 67.3333L125.333 67.6667L124.667 67.3333z"/>
<path style="fill:#fdfefe; stroke:none;" d="M126 67.5293C96.5921 74.3273 108.557 119.616 138 113.62C168.778 107.353 156.547 60.4681 126 67.5293z"/>
<path style="fill:#62d3dd; stroke:none;" d="M139.667 67.3333L140.333 67.6667L139.667 67.3333M166.333 67.6667L166.667 68.3333L166.333 67.6667M33 68L34 69L33 68M57 68L58 69L57 68M77 68L78 69L77 68M122 68L123 69L122 68M142.667 68.3333L143.333 68.6667L142.667 68.3333M32 69L33 70L32 69M55 69L56 70L55 69M79 69L80 70L79 69M97 69L98 70L97 69M120 69L121 70L120 69M144.667 69.3333L145.333 69.6667L144.667 69.3333M167 69L168 70L167 69M53.6667 70.3333L54.3333 70.6667L53.6667 70.3333M81 70L82 71L81 70M87 70L88 71L87 70M118 70L119 71L118 70M146 70L147 71L146 70M31 71L32 72L31 71M52 71L53 72L52 71M82 71L83 72L82 71M96 71L97 72L96 71M117 71L118 72L117 71M147 71L148 72L147 71M168 71L169 72L168 71M51 72L52 73L51 72M83 72L84 73L83 72M86 72L87 73L86 72M116 72L117 73L116 72M148 72L149 73L148 72M30 73L31 74L30 73M50 73L51 74L50 73M84 73L85 74L84 73M95.3333 73.6667L95.6667 74.3333L95.3333 73.6667M115 73L116 74L115 73M149 73L150 74L149 73M169 73L170 74L169 73M49 74L50 75L49 74M85 74L86 75L85 74M114 74L115 75L114 74M150 74L151 75L150 74M29.3333 75.6667L29.6667 76.3333L29.3333 75.6667M48 75L49 76L48 75M94.3333 75.6667L94.6667 76.3333L94.3333 75.6667M113 75L114 76L113 75M151 75L152 76L151 75M170.333 75.6667L170.667 76.3333L170.333 75.6667M112 76L113 77L112 76M152.333 76.6667L152.667 77.3333L152.333 76.6667M47 77L48 78L47 77M171 77L171 80L172 80L171 77M28.3333 78.6667L28.6667 79.3333L28.3333 78.6667M46 78L47 79L46 78M93.3333 78.6667L93.6667 79.3333L93.3333 78.6667M111.333 78.6667L111.667 79.3333L111.333 78.6667M153 78L154 79L153 78M45.3333 80.6667L45.6667 81.3333L45.3333 80.6667M110 80L111 81L110 80M154 80L155 81L154 80M92 81L92 85L93 85L92 81M172 81L172 85L173 85L172 81M27 82L27 86L28 86L27 82M44.3333 82.6667L44.6667 83.3333L44.3333 82.6667M109.333 82.6667L109.667 83.3333L109.333 82.6667M155.333 82.6667L155.667 83.3333L155.333 82.6667M108 85L108 96L109 96L108 85M43 86L43 95L44 95L43 86z"/>
<path style="fill:#06c8d8; stroke:none;" d="M114 86C114.969 94.4934 124.331 94.7697 125 86L124 86C120.181 90.4758 118.217 89.4187 114 86z"/>
<path style="fill:#62d3dd; stroke:none;" d="M115 86L116 87L115 86M123 86L124 87L123 86M125 86L125 90L126 90L125 86M139 86L139 90L140 90L139 86z"/>
<path style="fill:#06c8d8; stroke:none;" d="M140 86C140.613 94.0358 149.303 95.1368 151 87C145.954 89.6155 144.525 89.6686 140 86z"/>
<path style="fill:#62d3dd; stroke:none;" d="M141 86L142 87L141 86M149 86L149 87L151 90L152 90L152 86L149 86M156 86L156 96L157 96L156 86M113 87L113 90L114 90L113 87M116.333 87.6667L116.667 88.3333L116.333 87.6667M122.333 87.6667L122.667 88.3333L122.333 87.6667M142.333 87.6667L142.667 88.3333L142.333 87.6667M148.333 87.6667L148.667 88.3333L148.333 87.6667M173 87L173 94L174 94L173 87M26 88L26 92L27 92L26 88M117 89L118 90L117 89M121 89L122 90L121 89M143 89L144 90L143 89M147 89L148 90L147 89M91.3333 90.6667L91.6667 91.3333L91.3333 90.6667M114.333 90.6667L114.667 91.3333L114.333 90.6667M118 90L118 91L121 91L118 90M144 90L144 91L147 91L144 90M150.333 90.6667L150.667 91.3333L150.333 90.6667M124 91L125 92L124 91M140 91L141 92L140 91M116 92L117 93L116 92M123 92L124 93L123 92M141 92L142 93L141 92M149 92L150 93L149 92M117 93L117 94L122 94L117 93M143 93L143 94L148 94L143 93M27 96L27 100L28 100L27 96M172 96L172 100L173 100L172 96M44.3333 97.6667L44.6667 98.3333L44.3333 97.6667M92 97L92 100L93 100L92 97M109.333 97.6667L109.667 98.3333L109.333 97.6667M155.333 97.6667L155.667 98.3333L155.333 97.6667M124 98L127 105L126 99L124 98M139 98L139 99L142 100L139 98z"/>
<path style="fill:#06c8d8; stroke:none;" d="M124 99C126.757 108.529 137.066 106.535 142 100L139 99C133.929 104.745 129.759 101.911 124 99z"/>
<path style="fill:#62d3dd; stroke:none;" d="M45 100L46 101L45 100M110 100L111 101L110 100M126 100L127 101L126 100M138 100L139 101L138 100M154 100L155 101L154 100M28.3333 101.667L28.6667 102.333L28.3333 101.667M93.3333 101.667L93.6667 102.333L93.3333 101.667M127 101L128 102L127 101M137 101L138 102L137 101M141 101L142 102L141 101M46 102L47 103L46 102M111 102L112 103L111 102M129.667 102.333L130.333 102.667L129.667 102.333M134.667 102.333L135.333 102.667L134.667 102.333M140 102L141 103L140 102M153 102L154 103L153 102M171.333 102.667L171.667 103.333L171.333 102.667M47 103L48 104L47 103M139 103L140 104L139 103M29.3333 104.667L29.6667 105.333L29.3333 104.667M94.3333 104.667L94.6667 105.333L94.3333 104.667M112 104L113 105L112 104M138 104L139 105L138 104M170.333 104.667L170.667 105.333L170.333 104.667M48 105L49 106L48 105M113 105L114 106L113 105M128.667 105.333L129.333 105.667L128.667 105.333M135.667 105.333L136.333 105.667L135.667 105.333M151 105L152 106L151 105M30.3333 106.667L30.6667 107.333L30.3333 106.667M49 106L50 107L49 106M114 106L115 107L114 106M150 106L151 107L150 106M50 107L51 108L50 107M95 107L96 108L95 107M115 107L116 108L115 107M149 107L150 108L149 107M169 107L170 108L169 107M31.3333 108.667L31.6667 109.333L31.3333 108.667M51 108L52 109L51 108M116 108L117 109L116 108M148 108L149 109L148 108M52 109L53 110L52 109M96 109L97 110L96 109M117 109L118 110L117 109M147 109L148 110L147 109M168 109L169 110L168 109M53 110L54 111L53 110M97.3333 110.667L97.6667 111.333L97.3333 110.667M119 110L120 111L119 110M145.667 110.333L146.333 110.667L145.667 110.333M32 111L33 112L32 111M54 111L55 112L54 111M120 111L121 112L120 111M144 111L145 112L144 111M167 111L168 112L167 111M33 112L34 113L33 112M55 112L56 113L55 112M98.3333 112.667L98.6667 113.333L98.3333 112.667M122.667 112.333L123.333 112.667L122.667 112.333M141.667 112.333L142.333 112.667L141.667 112.333M56 113L57 114L56 113M124.667 113.333L125.333 113.667L124.667 113.333M139.667 113.333L140.333 113.667L139.667 113.333M167 113L168 114L167 113M34 114L35 115L34 114M57 114L58 115L57 114M99 114L100 115L99 114M128 114L128 115L137 115L128 114M168 114L169 115L168 114M35 115L36 116L35 115M58 115L59 116L58 115M100 115L101 116L100 115M169 115L170 116L169 115M36 116L37 117L36 116M59 116L60 117L59 116M101 116L102 117L101 116M170 116L171 117L170 116M60 117L61 118L60 117M171 117L172 118L171 117M61 118L62 119L61 118M172 118L173 119L172 118M38 119L39 120L38 119M62 119L63 120L62 119M173 119L174 120L173 119M63 120L64 121L63 120M174 120L174 122L176 122L174 120M40 121L41 122L40 121M64 121L65 122L64 121M106 121L107 122L106 121M65 122L66 123L65 122M107 122L108 123L107 122M176 122L178 125L176 122M66 123L67 124L66 123M108 123L109 124L108 123M67 124L68 125L67 124M110 124L111 125L110 124M44 125L45 126L44 125M68 125L69 126L68 125M111 125L112 126L111 125M153 125L154 126L153 125M155 125L156 126L155 125M178 125L178 128L179 128L178 125M45 126L46 127L45 126M69 126L70 127L69 126M113 126L114 127L113 126M149 128L152 126L149 128M156 126L157 127L156 126M46 127L47 128L46 127M70 127L71 128L70 127M115 127L116 128L115 127M157 127L158 128L157 127M71 128L73 130L71 128M117.667 128.333L118.333 128.667L117.667 128.333M146.667 128.333L147.333 128.667L146.667 128.333M158 128L160 130L160 128L158 128M48 129L49 130L48 129z"/>
<path style="fill:#5d7792; stroke:none;" d="M71 129L72 130L71 129z"/>
<path style="fill:#62d3dd; stroke:none;" d="M120.667 129.333L121.333 129.667L120.667 129.333M143 129L143 130L146 130L143 129M49 130L50 131L49 130z"/>
<path style="fill:#105985; stroke:none;" d="M71 130L72 131L71 130z"/>
<path style="fill:#62d3dd; stroke:none;" d="M73 130L74 131L73 130M124 130L124 131L128 131L124 130M138 130L138 131L141 131L138 130M160 130L161 131L160 130M178.333 130.667L178.667 131.333L178.333 130.667M50 131L51 132L50 131M74 131L89 146L74 131M131 131L131 132L136 132L131 131M161 131L162 132L161 131M51 132L52 133L51 132z"/>
<path style="fill:#5d7792; stroke:none;" d="M74 132L76 134L74 132z"/>
<path style="fill:#62d3dd; stroke:none;" d="M162 132L163 133L162 132z"/>
<path style="fill:#105985; stroke:none;" d="M74 133L75 134L74 133z"/>
<path style="fill:#62d3dd; stroke:none;" d="M163 133L164 134L163 133M177 133L178 134L177 133M53 134L54 135L53 134z"/>
<path style="fill:#105985; stroke:none;" d="M72 134C70.2117 136.317 67.5598 138.566 70 141L70 142L66 141C66.7393 148.05 71.674 153.148 77.0008 157.535C100.268 176.698 126.144 160.089 141 139C134.078 140.648 125.168 137.035 119 139.317C110.22 142.566 107.21 152.365 96 149.442C87.9786 147.351 82.8057 139.251 76 135L71 140L74 134L72 134z"/>
<path style="fill:#5d7792; stroke:none;" d="M76 134L77 135L76 134z"/>
<path style="fill:#62d3dd; stroke:none;" d="M164 134L165 135L164 134M176 134L177 135L176 134z"/>
<path style="fill:#5d7792; stroke:none;" d="M77 135L78 136L77 135z"/>
<path style="fill:#62d3dd; stroke:none;" d="M166 135L167 136L166 135M174.667 135.333L175.333 135.667L174.667 135.333z"/>
<path style="fill:#5d7792; stroke:none;" d="M78 136L79 137L78 136z"/>
<path style="fill:#62d3dd; stroke:none;" d="M167 136L167 137L170 137L167 136M172.667 136.333L173.333 136.667L172.667 136.333z"/>
<path style="fill:#5d7792; stroke:none;" d="M58 138L59 139L58 138M80 138L81 139L80 138M118 138L119 139L118 138M120.667 138.333L121.333 138.667L120.667 138.333z"/>
<path style="fill:#62d3dd; stroke:none;" d="M122 138L123 139L122 138z"/>
<path style="fill:#5d7792; stroke:none;" d="M81 139L82 140L81 139M117 139L118 140L117 139M125 139L125 140L128 140L125 139z"/>
<path style="fill:#62d3dd; stroke:none;" d="M128 139L128 140L137 140L128 139z"/>
<path style="fill:#5d7792; stroke:none;" d="M137 139L137 140L140 140L137 139z"/>
<path style="fill:#62d3dd; stroke:none;" d="M141 139L142 140L141 139z"/>
<path style="fill:#5d7792; stroke:none;" d="M60 140L61 141L60 140M82 140L83 141L82 140z"/>
<path style="fill:#62d3dd; stroke:none;" d="M116 140L117 141L116 140M140 140L141 141L140 140z"/>
<path style="fill:#5d7792; stroke:none;" d="M61 141L62 142L61 141z"/>
<path style="fill:#105985; stroke:none;" d="M63 141L64 142L63 141z"/>
<path style="fill:#62d3dd; stroke:none;" d="M115 141L116 142L115 141M139 141L140 142L139 141z"/>
<path style="fill:#5d7792; stroke:none;" d="M62 142L63 143L62 142z"/>
<path style="fill:#62d3dd; stroke:none;" d="M114 142L115 143L114 142M138 142L139 143L138 142M62 143L63 144L62 143M113 143L114 144L113 143M137 143L138 144L137 143z"/>
<path style="fill:#5d7792; stroke:none;" d="M67 144L68 145L67 144z"/>
<path style="fill:#06c8d8; stroke:none;" d="M68 144L69 145L68 144z"/>
<path style="fill:#62d3dd; stroke:none;" d="M112 144L113 145L112 144M136 144L137 145L136 144M64 145L65 146L64 145z"/>
<path style="fill:#5d7792; stroke:none;" d="M65 145L66 146L65 145M111 145L112 146L111 145z"/>
<path style="fill:#62d3dd; stroke:none;" d="M135 145L136 146L135 145z"/>
<path style="fill:#5d7792; stroke:none;" d="M66 146L67 147L66 146M89 146L90 147L89 146M110 146L111 147L110 146z"/>
<path style="fill:#62d3dd; stroke:none;" d="M134 146L135 147L134 146z"/>
<path style="fill:#5d7792; stroke:none;" d="M67 147L68 148L67 147z"/>
<path style="fill:#62d3dd; stroke:none;" d="M91 147L92 148L91 147M108 147L109 148L108 147z"/>
<path style="fill:#5d7792; stroke:none;" d="M109 147L110 148L109 147z"/>
<path style="fill:#62d3dd; stroke:none;" d="M133 147L134 148L133 147z"/>
<path style="fill:#5d7792; stroke:none;" d="M68 148L69 149L68 148M92 148L93 149L92 148z"/>
<path style="fill:#62d3dd; stroke:none;" d="M93 148L94 149L93 148M106 148L107 149L106 148z"/>
<path style="fill:#5d7792; stroke:none;" d="M107 148L108 149L107 148z"/>
<path style="fill:#62d3dd; stroke:none;" d="M132 148L133 149L132 148z"/>
<path style="fill:#5d7792; stroke:none;" d="M69 149L70 150L69 149M95 149L96 150L95 149z"/>
<path style="fill:#62d3dd; stroke:none;" d="M96 149L97 150L96 149M103 149L104 150L103 149z"/>
<path style="fill:#5d7792; stroke:none;" d="M104 149L105 150L104 149z"/>
<path style="fill:#62d3dd; stroke:none;" d="M131 149L132 150L131 149M130 150L131 151L130 150M129 151L130 152L129 151M128 152L129 153L128 152M127 153L128 154L127 153M126 154L127 155L126 154M74 155L75 156L74 155M125 155L126 156L125 155M75 156L76 157L75 156M124 156L125 157L124 156M76 157L77 158L76 157M123 157L124 158L123 157z"/>
<path style="fill:#5d7792; stroke:none;" d="M78 158L79 159L78 158z"/>
<path style="fill:#62d3dd; stroke:none;" d="M122 158L123 159L122 158z"/>
<path style="fill:#5d7792; stroke:none;" d="M79 159L80 160L79 159z"/>
<path style="fill:#62d3dd; stroke:none;" d="M80 160L81 161L80 160z"/>
<path style="fill:#5d7792; stroke:none;" d="M119 160L120 161L119 160z"/>
<path style="fill:#62d3dd; stroke:none;" d="M81 161L82 162L81 161z"/>
<path style="fill:#5d7792; stroke:none;" d="M82 161L83 162L82 161z"/>
<path style="fill:#62d3dd; stroke:none;" d="M118 161L119 162L118 161M83 162L84 163L83 162z"/>
<path style="fill:#5d7792; stroke:none;" d="M116 162L117 163L116 162z"/>
<path style="fill:#62d3dd; stroke:none;" d="M85 163L86 164L85 163z"/>
<path style="fill:#5d7792; stroke:none;" d="M114 163L115 164L114 163z"/>
<path style="fill:#62d3dd; stroke:none;" d="M87 164L88 165L87 164z"/>
<path style="fill:#5d7792; stroke:none;" d="M88 164L89 165L88 164M111 164L112 165L111 164z"/>
<path style="fill:#62d3dd; stroke:none;" d="M112 164L113 165L112 164M90 165L91 166L90 165z"/>
<path style="fill:#5d7792; stroke:none;" d="M91 165L92 166L91 165M108 165L109 166L108 165z"/>
<path style="fill:#62d3dd; stroke:none;" d="M109 165L110 166L109 165M94.6667 166.333L95.3333 166.667L94.6667 166.333z"/>
<path style="fill:#5d7792; stroke:none;" d="M96 166L96 167L105 167L96 166z"/>
<path style="fill:#62d3dd; stroke:none;" d="M105 166L106 167L105 166z"/>
</svg>
