<svg width="204" height="85" viewBox="0 0 204 85" fill="none" xmlns="http://www.w3.org/2000/svg">
<path d="M171.264 3.12118C171.264 3.12118 172.595 3.91828 173.171 4.36246C173.747 4.80529 177.695 6.66654 179.912 8.79484C182.129 10.9218 183.016 11.9417 184.125 14.6014C185.234 17.2611 185.81 19.3437 186.565 20.8064C187.318 22.2691 185.989 26.8786 184.26 27.9414C182.53 29.0056 181.954 28.9613 180.49 29.0942C180.49 29.0942 180.579 29.4927 181.777 29.6256C182.975 29.7584 182.087 30.6011 181.865 30.7783C181.644 30.9554 180.932 31.6371 179.024 31.6653C177.963 31.6801 177.519 31.001 177.076 31.0453C176.633 31.0896 175.479 30.8682 174.726 32.0652C173.972 33.2622 174.182 34.0271 172.286 34.9463C170.822 35.6548 170.734 35.1234 170.113 35.6548C169.493 36.1862 168.783 37.1618 165.722 36.9847C162.662 36.8076 160.888 33.5722 159.159 32.4637C157.429 31.3553 158.328 31.4264 153.793 30.7796C149.757 30.2039 149.313 29.1398 148.427 28.8298C147.541 28.5198 144.88 28.8741 144.081 29.0955C143.282 29.3169 140.622 28.8741 139.601 28.7412C138.58 28.6084 136.992 28.8848 135.476 28.5641C133.965 28.2447 132.682 22.9803 133.215 19.5222C133.311 18.8955 134.012 19.0794 134.324 18.5023C134.516 17.7965 133.737 16.4975 134.59 15.5769C136.807 13.1843 140.787 7.59382 141.685 7.20063C143.104 6.58066 142.75 6.62495 143.237 6.00363C143.725 5.38366 143.68 4.6295 145.943 4.3638C148.204 4.0981 148.782 2.19256 149.845 1.92552C150.91 1.65982 149.609 2.28113 154.724 1.61553C158.714 1.09621 158.94 1.4384 159.958 1.1727C160.977 0.906997 161.597 0.108549 163.194 0.152833C164.79 0.197117 167.007 1.39412 167.54 1.7041C168.072 2.01409 168.338 2.76825 169.669 2.85682C170.998 2.94404 171.264 3.12118 171.264 3.12118Z" fill="#579BAA"/>
<path d="M163.608 28.0636C163.844 28.0636 164.067 28.0045 164.263 27.9025L166.08 30.4697C166.049 30.5005 166.018 30.5327 165.991 30.569C165.682 30.9756 165.761 31.5539 166.168 31.8626C166.575 32.1712 167.154 32.092 167.463 31.6854C167.772 31.2788 167.692 30.7005 167.285 30.3918C167.05 30.2133 166.758 30.1664 166.493 30.2348L164.64 27.6167C164.842 27.4033 164.977 27.1269 165.015 26.821H166.363C166.454 27.0531 166.64 27.249 166.891 27.3456C167.367 27.5281 167.902 27.2906 168.084 26.8142C168.267 26.3379 168.029 25.8038 167.553 25.6213C167.076 25.4388 166.542 25.6763 166.359 26.1527C166.335 26.2171 166.317 26.2828 166.308 26.3473H164.995C164.858 25.7072 164.288 25.2254 163.608 25.2254C162.823 25.2254 162.188 25.8601 162.188 26.6438C162.188 26.8263 162.225 27.0008 162.286 27.1605L158.94 28.8218C158.772 28.6487 158.537 28.5413 158.278 28.5413C157.768 28.5413 157.354 28.9546 157.354 29.4645C157.354 29.9745 157.768 30.3878 158.278 30.3878C158.788 30.3878 159.202 29.9745 159.202 29.4645C159.202 29.3854 159.191 29.3075 159.172 29.2337L162.532 27.5671C162.617 27.665 162.713 27.7523 162.821 27.8234L160.882 32.1954L160.872 32.1887C160.474 31.9122 159.103 32.3336 159.287 32.5537C159.615 32.9468 161.271 34.4149 161.271 34.4149C161.271 34.4149 161.659 34.4042 161.704 33.6285C161.745 32.9012 161.329 32.5147 161.277 32.4691L163.252 28.0126C163.366 28.0461 163.485 28.0636 163.608 28.0636Z" fill="white"/>
<path d="M184.93 22.7643C184.453 22.5818 183.919 22.8193 183.736 23.2957C183.631 23.5681 183.665 23.8593 183.802 24.0928L182.555 25.4589C182.324 25.2965 182.043 25.1999 181.738 25.1999C181.417 25.1999 181.123 25.3073 180.885 25.4871L176.031 20.3394C176.164 20.1355 176.246 19.8939 176.258 19.6349L178.121 19.1022L179.138 21.4103C178.963 21.5123 178.819 21.6733 178.74 21.8773C178.557 22.3537 178.795 22.8878 179.271 23.0703C179.748 23.2528 180.283 23.0152 180.465 22.5389C180.648 22.0625 180.41 21.5284 179.933 21.3459C179.823 21.3043 179.712 21.2855 179.6 21.2855L178.58 18.9707L183.641 17.5227C183.725 17.5804 183.823 17.6301 183.928 17.673V19.5974C183.617 19.6497 183.34 19.8604 183.218 20.1771C183.035 20.6535 183.273 21.1875 183.75 21.37C184.226 21.5525 184.761 21.315 184.943 20.8386C185.126 20.3623 184.888 19.8282 184.412 19.6457C184.408 19.6443 184.405 19.643 184.401 19.6416V17.8126C184.934 17.9213 185.458 17.8918 185.424 17.7723C185.395 17.665 185.169 17.0866 184.904 16.4385C184.625 15.7514 184.308 14.9959 184.308 14.9959C183.756 15.3797 183.449 15.7017 183.294 15.9849L180.625 13.0072C180.653 12.9602 180.679 12.9105 180.7 12.8569C180.883 12.3805 180.645 11.8464 180.168 11.6639C179.692 11.4814 179.157 11.7189 178.975 12.1953C178.792 12.6717 179.03 13.2058 179.506 13.3883C179.771 13.4902 180.053 13.4607 180.284 13.3346L183.164 16.5472C183.168 16.6143 183.179 16.68 183.195 16.7444L182.031 16.4546C182.007 16.107 181.788 15.7876 181.44 15.6548C180.963 15.4723 180.429 15.7098 180.246 16.1862C180.064 16.6626 180.301 17.1966 180.778 17.3791C181.229 17.5523 181.733 17.3469 181.94 16.9189L183.059 17.198L178.387 18.5345L176.952 15.2804C177.386 15.0375 177.68 14.5745 177.68 14.0431C177.68 13.2594 177.045 12.6247 176.261 12.6247C176.203 12.6247 176.147 12.6287 176.092 12.6354L175.42 8.30102C175.916 8.0796 176.261 7.58443 176.261 7.00606C176.261 6.22237 175.626 5.58764 174.842 5.58764C174.149 5.58764 173.574 6.08281 173.448 6.73902H170.558C170.433 6.08416 169.857 5.58764 169.164 5.58764C169.12 5.58764 169.076 5.59033 169.033 5.59435L168.604 3.4996C169.223 3.29563 169.519 2.81388 169.519 2.81388C169.519 2.81388 169.666 2.83401 169.164 2.75752C168.662 2.68103 167.981 2.02214 167.745 1.80207C167.509 1.58065 166.887 1.28542 166.887 1.28542C166.758 1.66787 166.728 2.04361 166.782 2.37775L164.651 2.95478C164.628 2.91587 164.603 2.87695 164.573 2.84072C164.251 2.44485 163.67 2.38581 163.273 2.70787C162.877 3.02993 162.818 3.61098 163.14 4.00685C163.463 4.40272 164.044 4.46177 164.44 4.1397C164.669 3.95452 164.784 3.68211 164.78 3.40969L166.918 2.83132C167.125 3.28624 167.521 3.58951 168.042 3.58951C168.075 3.58951 168.107 3.58683 168.14 3.58549L168.575 5.71781C168.086 5.94191 167.745 6.4344 167.745 7.00606C167.745 7.05034 167.748 7.09328 167.752 7.13622L166.83 7.24089C166.814 7.2154 166.796 7.19125 166.775 7.16709C166.453 6.77122 165.872 6.71217 165.476 7.03424C165.079 7.3563 165.02 7.93736 165.343 8.33323C165.665 8.72909 166.246 8.78814 166.642 8.46607C166.88 8.27284 166.996 7.98432 166.981 7.69984L167.875 7.59785C168.099 8.08497 168.591 8.42448 169.164 8.42448C169.879 8.42448 170.467 7.8971 170.567 7.21137H173.438C173.538 7.8971 174.127 8.42448 174.842 8.42448C174.882 8.42448 174.921 8.42179 174.96 8.41911L175.634 12.7723C175.355 12.9105 175.128 13.136 174.989 13.4151L171.996 12.6703C172.002 12.6234 172.003 12.5751 172.003 12.5267C172.003 12.2933 171.945 12.0732 171.846 11.8786L172.98 11.1285C173.313 11.4049 173.805 11.417 174.153 11.1338C174.549 10.8118 174.608 10.2307 174.286 9.83484C173.963 9.43897 173.382 9.37993 172.986 9.70199C172.669 9.95964 172.568 10.3823 172.705 10.7433L171.56 11.5002C171.305 11.2586 170.962 11.1083 170.582 11.1083C169.879 11.1083 169.297 11.6196 169.184 12.2906H166.845C166.695 11.6693 166.136 11.2076 165.468 11.2076C165.27 11.2076 165.082 11.2479 164.91 11.3217L163.118 8.09033C163.424 7.83 163.62 7.44218 163.62 7.00874C163.62 6.22506 162.985 5.59033 162.201 5.59033C162.05 5.59033 161.905 5.61448 161.768 5.65742L160.041 2.54549C160.047 2.54281 160.052 2.54147 160.056 2.54013C160.839 2.17378 161.298 0.57152 160.78 0.778177C160.147 1.0318 159.597 1.20223 159.597 1.20223C159.048 1.30421 158.305 1.16465 158.018 1.26798C157.781 1.35252 157.912 1.50148 158.018 1.8222C158.112 2.10803 158.409 2.36836 158.776 2.52268L157.16 4.21217C156.847 4.06187 156.463 4.09408 156.175 4.32757C155.779 4.64963 155.72 5.23069 156.043 5.62656C156.365 6.02243 156.946 6.08147 157.342 5.75941C157.718 5.45345 157.791 4.91265 157.52 4.52081L158.977 2.99772L157.24 9.96367C157.2 9.96098 157.161 9.95695 157.119 9.95695C156.854 9.95695 156.606 10.0308 156.393 10.1582L151.989 5.46955C152.201 5.22129 152.33 4.90058 152.33 4.54899C152.33 3.76531 151.695 3.13057 150.91 3.13057C150.126 3.13057 149.491 3.76531 149.491 4.54899C149.491 4.76236 149.539 4.96365 149.624 5.14481L148.442 6.00096C148.233 5.81845 147.944 5.73123 147.651 5.79162C147.152 5.8936 146.828 6.38206 146.932 6.88126C147.035 7.38046 147.523 7.70386 148.022 7.60053C148.522 7.49854 148.845 7.01008 148.742 6.51089C148.734 6.47063 148.722 6.43037 148.708 6.3928L149.893 5.53531C150.15 5.80101 150.512 5.96741 150.912 5.96741C151.172 5.96741 151.417 5.89628 151.626 5.77283L156.033 10.4642C155.95 10.5635 155.88 10.6762 155.825 10.797L150.941 9.24842L151.383 8.73849C151.57 8.84316 151.794 8.88476 152.02 8.83913C152.519 8.73714 152.843 8.24868 152.739 7.74949C152.637 7.25029 152.148 6.92688 151.649 7.03021C151.149 7.1322 150.826 7.62066 150.929 8.11986C150.951 8.22587 150.991 8.32249 151.043 8.40971L150.451 9.0941L144.106 7.08255C144.11 7.0745 144.115 7.06645 144.119 7.05839C144.458 6.3673 143.811 5.10455 143.811 5.10455C143.654 5.30449 143.36 5.73525 143.133 6.10026C143.019 6.28276 142.957 6.44513 142.82 6.5592C142.38 6.92286 142.063 7.00874 141.813 7.12415C141.563 7.23821 141.428 7.35898 141.428 7.35898C141.487 7.56967 141.428 7.92662 142.018 8.21514C142.8 8.59758 143.305 8.29162 143.657 7.84074L147.392 10.6749C147.279 10.8721 147.214 11.1003 147.207 11.3432L145.389 11.6277C145.327 11.5029 145.237 11.3901 145.119 11.3002C144.712 10.9916 144.133 11.0708 143.824 11.4774C143.516 11.884 143.595 12.4623 144.002 12.771C144.409 13.0796 144.987 13.0004 145.296 12.5938C145.41 12.4422 145.472 12.2678 145.483 12.092L147.274 11.8128C147.424 12.2785 147.809 12.6368 148.288 12.7535V17.202C147.896 17.2973 147.567 17.5549 147.377 17.9012L145.471 17.2128L146.459 16.2251C146.863 16.5042 147.419 16.4197 147.72 16.0251C148.029 15.6185 147.95 15.0402 147.543 14.7315C147.136 14.4229 146.557 14.5021 146.248 14.9087C146.032 15.1932 146.007 15.5635 146.152 15.8655L144.979 17.037L141.871 15.9151C141.894 15.8131 141.907 15.7085 141.907 15.5984C141.907 14.8147 141.272 14.18 140.488 14.18C140.478 14.18 140.469 14.1813 140.461 14.1813L140.049 12.1631C140.143 12.1054 140.23 12.0289 140.301 11.9363C140.61 11.5297 140.531 10.9513 140.124 10.6427C139.717 10.334 139.138 10.4132 138.829 10.8198C138.52 11.2264 138.6 11.8048 139.007 12.1134C139.182 12.2463 139.391 12.3067 139.595 12.3L139.998 14.2699C139.456 14.4699 139.071 14.9892 139.071 15.5984C139.071 16.0828 139.315 16.5109 139.686 16.7672L138.365 19.7477C138.099 19.6886 137.809 19.7463 137.581 19.9315C137.527 19.9744 137.481 20.0227 137.44 20.0737L135.345 18.8647C135.476 18.5574 135.534 18.1749 135.35 17.7911C134.958 16.9779 134.218 16.8303 134.158 16.8746C134.097 16.9189 134.182 17.1577 134.182 17.1577C134.182 17.1577 134.233 17.4798 134.315 18.0313C134.397 18.5829 134.052 18.8392 133.614 19.0163C133.176 19.1934 133.161 19.5235 133.161 19.5235C134.189 19.9275 134.656 19.592 134.852 19.5034C134.907 19.4779 135.004 19.3934 135.103 19.2686L137.252 20.5085C137.214 20.7568 137.277 21.0185 137.448 21.2278C137.77 21.6237 138.351 21.6827 138.747 21.3606C139.144 21.0386 139.203 20.4575 138.88 20.0617C138.851 20.0254 138.819 19.9932 138.785 19.9624L140.116 16.9618C140.235 16.994 140.36 17.0128 140.49 17.0128C140.997 17.0128 141.44 16.7471 141.691 16.3472L144.611 17.4006L144.223 17.7884C143.823 17.5375 143.29 17.6301 142.999 18.0139C142.69 18.4205 142.769 18.9989 143.176 19.3075C143.232 19.3504 143.291 19.384 143.352 19.4122L143.193 20.7648L142.53 20.6387C142.529 20.4347 142.462 20.2307 142.323 20.0603C142.001 19.6644 141.42 19.6054 141.023 19.9275C140.627 20.2495 140.568 20.8306 140.89 21.2265C141.213 21.6223 141.794 21.6814 142.19 21.3593C142.283 21.2842 142.355 21.1942 142.411 21.0976L143.138 21.2358L143.019 22.2571C142.905 22.2275 142.786 22.2101 142.663 22.2101C141.932 22.2101 141.332 22.7616 141.253 23.4702L135.768 23.1374C135.738 22.9978 135.676 22.8636 135.581 22.7455C135.259 22.3496 134.677 22.2906 134.281 22.6127C133.885 22.9347 133.826 23.5158 134.148 23.9116C134.471 24.3075 135.052 24.3666 135.448 24.0445C135.593 23.9264 135.693 23.7748 135.745 23.6097L141.281 23.9465C141.425 24.5772 141.989 25.0483 142.664 25.0483C143.448 25.0483 144.084 24.4135 144.084 23.6298C144.084 23.1468 143.842 22.72 143.473 22.4637L143.607 21.3244L146.425 21.8572C146.448 22.1068 146.57 22.347 146.787 22.5107C147.194 22.8193 147.772 22.7401 148.081 22.3335C148.39 21.9269 148.311 21.3486 147.904 21.0399C147.878 21.0211 147.853 21.0037 147.826 20.9876L148.18 19.9208C148.321 19.9677 148.473 19.9946 148.63 19.9946C149.414 19.9946 150.05 19.3598 150.05 18.5761C150.05 17.8381 149.486 17.2329 148.766 17.1644V12.7871C149.099 12.7549 149.398 12.6086 149.624 12.3872L152.379 14.3907C152.23 14.8536 152.467 15.3596 152.927 15.5353C153.404 15.7178 153.938 15.4803 154.121 15.0039C154.304 14.5276 154.066 13.9935 153.589 13.811C153.252 13.6821 152.886 13.764 152.636 13.9921L149.901 12.0047C149.995 11.8155 150.048 11.6022 150.048 11.3767C150.048 11.0788 149.956 10.8024 149.799 10.5742L150.608 9.63892L155.711 11.2559C155.708 11.2962 155.704 11.3351 155.704 11.3754C155.704 11.9886 156.095 12.5106 156.641 12.7079L156.335 15.3166C155.558 15.3233 154.928 15.9554 154.928 16.7337C154.928 17.5174 155.563 18.1521 156.347 18.1521C156.471 18.1521 156.589 18.1347 156.703 18.1051L157.512 20.3341C157.298 20.4548 157.119 20.6293 156.993 20.8386L154.923 19.9221C154.958 19.5222 154.727 19.1317 154.333 18.9814C153.856 18.7989 153.322 19.0364 153.139 19.5128C152.957 19.9892 153.194 20.5233 153.671 20.7058C154.077 20.8614 154.525 20.7112 154.761 20.3676L156.819 21.2788C156.8 21.3727 156.789 21.4693 156.789 21.5686C156.789 21.6693 156.8 21.7673 156.82 21.8612L152.394 23.4648C152.158 23.0099 151.682 22.6985 151.135 22.6985C150.35 22.6985 149.715 23.3333 149.715 24.117C149.715 24.1304 149.717 24.1438 149.718 24.1572L137.384 26.0936C137.168 25.5864 136.665 25.2308 136.078 25.2308C135.294 25.2308 134.659 25.8655 134.659 26.6492C134.659 27.4329 135.294 28.0676 136.078 28.0676C136.862 28.0676 137.497 27.4329 137.497 26.6492C137.497 26.617 137.495 26.5861 137.492 26.5552L149.809 24.6215C149.821 24.651 149.833 24.6806 149.847 24.7101L147.974 25.64C147.951 25.6186 147.927 25.5984 147.903 25.5797C147.496 25.271 146.917 25.3502 146.608 25.7568C146.499 25.9004 146.44 26.0641 146.425 26.2305L141.695 27.1953C141.634 27.0477 141.535 26.9122 141.399 26.8089C140.993 26.5002 140.414 26.5794 140.105 26.986C139.796 27.3926 139.875 27.971 140.282 28.2796C140.689 28.5883 141.268 28.5091 141.577 28.1025C141.677 27.9696 141.736 27.8193 141.757 27.665L146.505 26.6961C146.566 26.8317 146.66 26.9538 146.787 27.0491C147.194 27.3577 147.772 27.2785 148.081 26.8719C148.268 26.625 148.312 26.3164 148.227 26.0413L150.119 25.1033C150.377 25.369 150.738 25.5354 151.137 25.5354C151.161 25.5354 151.186 25.5327 151.208 25.5314L152.233 29.0459C151.119 29.329 150.948 30.157 150.948 30.157C150.948 30.157 151.345 30.2992 151.864 30.4321C152.715 30.6508 153.761 30.8253 153.92 30.8253C154.058 30.8253 153.941 30.4119 153.909 30.2925C153.874 30.1597 153.664 29.6014 153.245 29.2659L156.342 25.6723C156.733 25.8735 157.224 25.7716 157.499 25.4092C157.808 25.0026 157.729 24.4243 157.322 24.1156C156.915 23.807 156.337 23.8862 156.028 24.2928C155.785 24.6121 155.783 25.0375 155.99 25.3556L152.813 29.0418C152.782 29.0338 152.751 29.0271 152.718 29.0204L151.672 25.4294C152.19 25.2187 152.557 24.7101 152.557 24.1156C152.557 24.0472 152.55 23.9801 152.541 23.9143L156.997 22.2987C157.246 22.7093 157.695 22.9844 158.211 22.9844C158.995 22.9844 159.63 22.3496 159.63 21.566C159.63 21.3499 159.581 21.1446 159.493 20.9608L164.11 17.9092L163.849 17.5147L159.224 20.5716C158.966 20.3099 158.609 20.1462 158.211 20.1462C158.125 20.1462 158.041 20.1556 157.959 20.1704L157.138 17.9092C157.518 17.6542 157.768 17.2221 157.768 16.731C157.768 16.107 157.364 15.5783 156.804 15.3891L157.109 12.7898C157.114 12.7898 157.119 12.7911 157.125 12.7911C157.909 12.7911 158.544 12.1564 158.544 11.3727C158.544 10.7957 158.199 10.3005 157.704 10.0791L159.553 2.6609C159.558 2.6609 159.562 2.6609 159.567 2.6609L161.351 5.87615C161.007 6.13515 160.783 6.54578 160.783 7.00874C160.783 7.79243 161.418 8.42716 162.202 8.42716C162.382 8.42716 162.554 8.39227 162.712 8.33054L164.514 11.5793C164.391 11.6921 164.287 11.8249 164.209 11.9739L162.358 11.3593C162.375 11.2506 162.375 11.1378 162.352 11.0238C162.25 10.5246 161.761 10.2012 161.262 10.3045C160.762 10.4065 160.439 10.895 160.542 11.3942C160.646 11.8934 161.133 12.2168 161.633 12.1134C161.849 12.0691 162.033 11.9524 162.163 11.7927L164.066 12.4248C164.056 12.4905 164.05 12.5576 164.05 12.6274C164.05 12.8072 164.084 12.9776 164.145 13.136L160.729 15.3931C160.65 15.3247 160.558 15.2683 160.455 15.228C159.978 15.0455 159.444 15.2831 159.261 15.7594C159.079 16.2358 159.316 16.7699 159.793 16.9524C160.27 17.1349 160.804 16.8974 160.987 16.421C161.069 16.2076 161.066 15.9835 160.995 15.7836L164.385 13.5426C164.576 13.7667 164.835 13.9304 165.129 14.0029V15.9996H165.602V14.0378C166.277 13.9747 166.814 13.4379 166.879 12.7643H169.183C169.209 12.9186 169.26 13.0662 169.331 13.2004L166.03 15.8842L166.328 16.2506L169.622 13.5721C169.875 13.8043 170.21 13.9465 170.581 13.9465C171.15 13.9465 171.64 13.611 171.866 13.1279L174.851 13.8714C174.844 13.9291 174.839 13.9868 174.839 14.0458C174.839 14.8295 175.474 15.4642 176.258 15.4642C176.341 15.4642 176.423 15.4562 176.503 15.4414L177.925 18.6687L176.198 19.1626C176.023 18.5775 175.481 18.1508 174.839 18.1508C174.055 18.1508 173.42 18.7855 173.42 19.5692C173.42 20.3529 174.055 20.9876 174.839 20.9876C174.86 20.9876 174.882 20.9849 174.903 20.9849L175.802 25.3784C175.622 25.4804 175.475 25.6427 175.395 25.8507C175.212 26.3271 175.45 26.8612 175.927 27.0437C176.403 27.2262 176.938 26.9887 177.12 26.5123C177.303 26.0359 177.065 25.5018 176.589 25.3193C176.48 25.2777 176.37 25.2589 176.26 25.2589L175.367 20.8856C175.489 20.836 175.603 20.7702 175.706 20.691L180.555 25.8346C180.403 26.0601 180.316 26.3311 180.316 26.6223C180.316 26.7538 180.335 26.88 180.368 27.0008L177.379 28.7251C177.12 28.3897 176.715 28.1736 176.258 28.1736C175.861 28.1736 175.501 28.3373 175.244 28.6003L171.878 26.2453C171.957 26.0695 172.002 25.8735 172.002 25.6682C172.002 24.8845 171.366 24.2498 170.582 24.2498C170.373 24.2498 170.174 24.2968 169.995 24.3773L167.792 21.9189C168.009 21.6693 168.144 21.3445 168.144 20.9862C168.144 20.6427 168.022 20.3274 167.817 20.0818L170.324 17.3523C170.498 17.4342 170.699 17.4637 170.902 17.4221C171.401 17.3201 171.725 16.8316 171.622 16.3324C171.52 15.8333 171.031 15.5098 170.531 15.6132C170.032 15.7152 169.708 16.2036 169.811 16.7028C169.838 16.8316 169.891 16.9484 169.962 17.049L167.459 19.7731C167.244 19.643 166.994 19.5665 166.724 19.5665C166.66 19.5665 166.595 19.5719 166.532 19.5812L166.06 17.7348L165.602 17.8515L166.08 19.7222C165.619 19.957 165.304 20.4334 165.304 20.9849C165.304 21.0238 165.306 21.0627 165.309 21.1017L162.853 21.7283C162.751 21.5606 162.594 21.4224 162.395 21.3459C161.919 21.1634 161.384 21.4009 161.201 21.8773C161.019 22.3537 161.257 22.8878 161.733 23.0703C162.21 23.2528 162.744 23.0152 162.927 22.5389C162.973 22.4208 162.991 22.3 162.987 22.1819L165.425 21.5593C165.645 22.0558 166.143 22.402 166.722 22.402C166.977 22.402 167.216 22.3335 167.423 22.2155L169.598 24.6417C169.329 24.8993 169.16 25.2616 169.16 25.6642C169.16 26.4479 169.795 27.0826 170.58 27.0826C170.988 27.0826 171.353 26.9095 171.612 26.6344L174.972 28.9841C174.886 29.1666 174.836 29.3706 174.836 29.5867C174.836 29.8953 174.936 30.1798 175.103 30.4119L171.818 33.6956C171.717 33.6661 171.601 33.642 171.477 33.6285V30.5247C171.753 30.4509 171.992 30.2509 172.102 29.9637C172.285 29.4874 172.047 28.9533 171.571 28.7708C171.094 28.5883 170.559 28.8258 170.377 29.3022C170.194 29.7785 170.432 30.3126 170.909 30.4951C170.939 30.5072 170.972 30.5166 171.003 30.526V33.6527C170.768 33.7023 170.531 33.8137 170.323 34.0351C170.14 34.2284 170.038 34.431 169.986 34.6256L167.047 34.9906C166.946 34.7947 166.778 34.635 166.557 34.5491C166.08 34.3666 165.545 34.6041 165.363 35.0805C165.18 35.5569 165.418 36.091 165.895 36.2735C166.371 36.456 166.906 36.2185 167.088 35.7421C167.125 35.6468 167.143 35.5502 167.149 35.4536L169.947 35.1073C169.977 35.4401 170.107 35.6777 170.107 35.6777C170.354 35.424 170.712 35.3918 170.712 35.3918C170.712 35.3918 171.267 35.4026 171.799 35.1677C172.331 34.9315 172.627 34.8524 172.752 34.7074C172.984 34.4404 172.48 34.0741 172.266 33.9157L175.439 30.7447C175.67 30.9071 175.951 31.0037 176.256 31.0037C177.04 31.0037 177.675 30.369 177.675 29.5853C177.675 29.4283 177.648 29.2767 177.601 29.1358L180.567 27.4248C180.824 27.7938 181.249 28.0354 181.733 28.0354C182.517 28.0354 183.152 27.4007 183.152 26.617C183.152 26.3083 183.053 26.0238 182.885 25.7903L184.132 24.4243C184.174 24.4484 184.217 24.4699 184.263 24.4873C184.739 24.6698 185.274 24.4323 185.456 23.9559C185.644 23.4809 185.407 22.9468 184.93 22.7643ZM143.935 7.41937L143.927 7.44353L143.922 7.44084C143.927 7.43279 143.931 7.42608 143.935 7.41937ZM147.373 20.8494C147.086 20.8413 146.797 20.9661 146.611 21.213C146.569 21.2681 146.534 21.3271 146.507 21.3875L143.665 20.8507L143.824 19.4887C144.073 19.4658 144.313 19.3437 144.476 19.129C144.701 18.8311 144.719 18.442 144.552 18.132L145.108 17.5764L147.232 18.3427C147.22 18.4178 147.212 18.4943 147.212 18.5721C147.212 19.027 147.427 19.4296 147.759 19.6899L147.373 20.8494ZM149.47 10.2294C149.235 10.0563 148.946 9.95293 148.632 9.95293C148.274 9.95293 147.948 10.0858 147.698 10.3045L144.089 7.56564L150.119 9.47789L149.47 10.2294Z" fill="white"/>
<path d="M165.348 18.0152C167.406 18.0152 169.074 17.4727 169.074 16.8035C169.074 16.1342 167.406 15.5917 165.348 15.5917C163.29 15.5917 161.621 16.1342 161.621 16.8035C161.621 17.4727 163.29 18.0152 165.348 18.0152Z" fill="#323232"/>
<path d="M0.0410156 38.8993C0.886974 38.8993 1.73428 38.8993 2.66886 38.8993C2.66886 35.519 2.66886 32.1561 2.66886 28.6873C3.03678 28.6873 3.31743 28.6873 3.59807 28.6873C4.71662 28.6873 5.83516 28.6873 6.95371 28.6873C7.87755 28.6873 7.87889 28.6886 7.87889 29.644C7.88023 32.4393 7.87889 35.2332 7.87889 38.0284C7.87889 38.2928 7.87889 38.5585 7.87889 38.8966C10.4987 38.8966 13.058 38.8966 15.6778 38.8966C15.6778 40.6304 15.6778 42.2904 15.6778 44.0067C15.4818 44.0174 15.2656 44.0389 15.0507 44.0389C12.9023 44.0429 10.7551 44.0563 8.60668 44.0322C8.07494 44.0268 7.8574 44.1476 7.8668 44.7313C7.90977 47.3011 7.83861 49.8749 7.94334 52.442C8.08434 55.9056 11.0788 59.0255 14.5203 59.4469C14.8963 59.4925 15.2736 59.5408 15.7356 59.5985C15.7356 60.4386 15.7356 61.28 15.7356 62.1227C15.7356 62.9439 15.7356 63.7639 15.7356 64.6401C13.5226 64.6469 11.4816 64.2121 9.62049 63.1681C6.16146 61.2263 3.78875 58.4029 2.9683 54.4509C2.75748 53.4324 2.72526 52.3669 2.7078 51.3215C2.6702 49.1087 2.68229 46.8945 2.70646 44.6817C2.71183 44.1758 2.54532 44.0147 2.05117 44.0335C1.38246 44.0577 0.711069 44.0134 0.0410156 43.9986C0.0410156 42.2984 0.0410156 40.5982 0.0410156 38.8993Z" fill="white"/>
<path d="M149.379 64.6136C147.666 64.6136 146 64.6136 144.235 64.6136C144.235 64.3358 144.235 64.0768 144.235 63.8178C144.235 59.0781 144.224 54.3371 144.24 49.5974C144.247 47.4463 143.42 45.7474 141.52 44.7101C138.041 42.81 133.62 45.1637 133.666 49.5384C133.716 54.2553 133.678 58.9735 133.678 63.6917C133.678 63.9788 133.678 64.266 133.678 64.6042C131.954 64.6042 130.289 64.6042 128.547 64.6042C128.533 64.3277 128.504 64.0473 128.504 63.7682C128.502 59.05 128.491 54.3331 128.51 49.6149C128.516 47.7751 127.927 46.2252 126.424 45.1194C124.684 43.8406 122.772 43.6768 120.854 44.6202C118.889 45.5877 117.953 47.2678 117.95 49.4538C117.946 54.1935 117.951 58.9345 117.953 63.6742C117.953 63.9641 117.953 64.2526 117.953 64.5988C116.227 64.5988 114.542 64.5988 112.807 64.5988C112.807 56.0749 112.807 47.5456 112.807 38.9747C114.511 38.9747 116.176 38.9747 117.907 38.9747C117.935 39.3706 117.962 39.7571 117.992 40.1945C122.853 38.0354 127.235 38.5829 131.041 42.3188C131.91 41.6599 132.701 40.9165 133.616 40.3891C140.196 36.6009 148.206 40.6199 149.289 47.6302C149.385 48.2461 149.416 48.8768 149.417 49.5008C149.426 54.3076 149.421 59.1157 149.418 63.9225C149.418 64.1399 149.394 64.3586 149.379 64.6136Z" fill="white"/>
<path d="M104.912 41.4559C104.912 40.5662 104.912 39.7946 104.912 38.9774C106.663 38.9774 108.349 38.9774 110.075 38.9774C110.075 47.5201 110.075 56.0293 110.075 64.5961C108.392 64.5961 106.707 64.5961 104.93 64.5961C104.93 63.8259 104.93 63.0395 104.93 62.1042C101.204 64.7008 97.2536 65.2698 93.0762 64.0755C90.1529 63.2395 87.8742 61.4225 86.1407 58.9533C82.8844 54.3156 83.3383 47.7711 86.9853 43.5172C91.2043 38.5976 99.0946 37.2691 104.912 41.4559ZM97.0643 44.0606C92.7687 43.9895 89.2345 47.394 89.1552 51.6774C89.076 55.9622 92.5136 59.4686 96.879 59.5572C101.232 59.6458 104.855 56.1903 104.912 51.8948C104.968 47.602 101.493 44.1331 97.0643 44.0606Z" fill="white"/>
<path d="M68.2291 62.1095C64.5647 64.6471 60.7082 65.2376 56.6046 64.1385C53.6585 63.3495 51.3959 61.5499 49.5778 59.1479C46.4504 55.0148 46.4853 48.4984 49.6597 44.3505C51.8592 41.4761 54.6804 39.6041 58.3059 39.0982C61.8495 38.6044 65.1447 39.2901 68.2009 41.5016C68.2009 40.5743 68.2009 39.8054 68.2009 38.9841C69.9466 38.9841 71.6103 38.9841 73.3398 38.9841C73.3398 47.5121 73.3398 56.0346 73.3398 64.6538C72.5006 64.6538 71.6586 64.6538 70.8167 64.6538C69.9922 64.6538 69.1677 64.6538 68.2305 64.6538C68.2291 63.8245 68.2291 63.0422 68.2291 62.1095ZM60.3026 44.0579C55.9453 44.0781 52.3976 47.5711 52.4299 51.8076C52.4634 56.0964 55.9788 59.5545 60.3107 59.5585C64.6573 59.5626 68.1929 56.1044 68.2103 51.8317C68.2305 47.5241 64.6842 44.0378 60.3026 44.0579Z" fill="white"/>
<path d="M18.4761 28.6446C20.1009 28.6446 21.6652 28.6312 23.2282 28.6687C23.3625 28.6714 23.5921 29.0096 23.5988 29.1988C23.6364 30.1811 23.6163 31.1661 23.6163 32.1497C23.6163 34.9677 23.6163 37.7858 23.6163 40.6025C23.6163 40.844 23.6163 41.0869 23.6163 41.4774C23.905 41.2896 24.0809 41.1755 24.2581 41.0614C31.8395 36.154 42.2555 40.0751 44.2952 49.1197C44.4953 50.0067 44.5692 50.938 44.5759 51.8492C44.6054 55.9421 44.5893 60.0336 44.588 64.1265C44.588 64.2781 44.5692 64.4284 44.5557 64.6149C42.845 64.6149 41.1746 64.6149 39.3887 64.6149C39.3887 64.3667 39.3887 64.1104 39.3887 63.8541C39.3887 59.8739 39.4021 55.8924 39.3833 51.9122C39.3645 48.0354 36.7649 44.9262 32.9594 44.1787C28.2946 43.2622 23.7814 46.7297 23.6579 51.4573C23.5505 55.569 23.6243 59.686 23.6176 63.8004C23.6176 64.0634 23.6176 64.3251 23.6176 64.6203C21.8653 64.6203 20.1975 64.6203 18.4761 64.6203C18.4761 52.653 18.4761 40.7045 18.4761 28.6446Z" fill="white"/>
<path d="M173.041 38.9546C174.805 38.9546 176.457 38.9546 178.173 38.9546C178.173 47.5013 178.173 56.0266 178.173 64.6042C176.502 64.6042 174.817 64.6042 173.053 64.6042C173.053 63.8272 173.053 63.0556 173.053 62.1645C172.776 62.3202 172.606 62.4021 172.449 62.5054C166.791 66.248 159.117 65.0309 154.873 59.7437C153.021 57.437 152.108 54.8095 152.086 51.8774C152.057 47.7187 152.076 43.5588 152.076 39.3988C152.076 39.27 152.099 39.1398 152.115 38.9734C153.816 38.9734 155.485 38.9734 157.243 38.9734C157.254 39.223 157.276 39.4793 157.276 39.7356C157.278 43.7386 157.255 47.7415 157.283 51.7445C157.314 56.146 160.84 59.5921 165.227 59.5572C169.501 59.5236 172.944 56.2225 173.018 51.9619C173.088 47.9375 173.038 43.9117 173.041 39.8873C173.041 39.6014 173.041 39.3156 173.041 38.9546Z" fill="white"/>
<path d="M199.167 41.5392C198.387 42.9697 197.619 44.376 196.842 45.7998C195.868 45.3261 194.963 44.839 194.022 44.4377C192.214 43.6675 190.353 43.1213 188.354 43.4595C187.376 43.6245 186.548 44.0231 186.275 45.0886C186.021 46.0775 186.393 46.9485 187.362 47.6114C187.728 47.8623 188.119 48.0998 188.531 48.2609C189.985 48.8325 191.449 49.38 192.918 49.9168C193.882 50.2697 194.88 50.5368 195.826 50.9313C198.344 51.9807 199.725 53.4353 199.48 57.1552C199.237 60.8602 196.629 63.4434 192.729 64.2553C189.514 64.9249 186.467 64.3787 183.481 63.1978C182.635 62.8637 181.798 62.5054 180.897 62.1337C181.691 60.6509 182.446 59.2418 183.228 57.7791C183.826 58.0032 184.371 58.2555 184.943 58.4139C186.661 58.8903 188.373 59.4096 190.118 59.7585C191.516 60.0376 192.855 59.784 193.767 58.4998C194.567 57.3725 194.486 56.3017 193.356 55.5193C192.413 54.8672 191.346 54.3666 190.282 53.9225C188.491 53.1737 186.673 52.4826 184.84 51.8384C180.304 50.2416 179.675 44.5115 182.544 41.2708C183.975 39.6524 185.84 39.0217 187.885 38.7963C191.605 38.3856 195.887 39.4364 199.167 41.5392Z" fill="white"/>
<path d="M76.1194 28.6848C77.8207 28.6848 79.4911 28.6848 81.2139 28.6848C81.2139 40.6495 81.2139 52.5966 81.2139 64.6002C79.5489 64.6002 77.8623 64.6002 76.1194 64.6002C76.1194 52.6745 76.1194 40.7286 76.1194 28.6848Z" fill="white"/>
<path d="M195.324 71.6775C195.005 72.2532 194.691 72.8194 194.372 73.3925C193.973 73.2019 193.604 73.006 193.219 72.8436C192.479 72.5336 191.718 72.3135 190.9 72.4504C190.5 72.5175 190.161 72.6772 190.049 73.1066C189.944 73.5052 190.097 73.8554 190.493 74.1225C190.643 74.2231 190.803 74.3184 190.971 74.3841C191.566 74.6149 192.165 74.835 192.765 75.0497C193.16 75.192 193.568 75.2993 193.955 75.4577C194.985 75.8804 195.55 76.4655 195.449 77.9617C195.35 79.4526 194.282 80.4926 192.687 80.8187C191.373 81.0884 190.125 80.8683 188.903 80.3933C188.557 80.2591 188.214 80.1142 187.846 79.9652C188.171 79.368 188.48 78.8018 188.8 78.2126C189.044 78.3026 189.267 78.4045 189.502 78.4676C190.204 78.6595 190.905 78.8688 191.62 79.0084C192.192 79.1211 192.739 79.0191 193.111 78.5012C193.439 78.0476 193.405 77.6168 192.944 77.3015C192.558 77.0385 192.12 76.8372 191.685 76.6587C190.952 76.3568 190.208 76.079 189.459 75.82C187.603 75.1772 187.347 72.8718 188.519 71.5674C189.105 70.9166 189.867 70.663 190.704 70.5717C192.231 70.408 193.983 70.8307 195.324 71.6775Z" fill="#4BA3A5"/>
<path d="M78.0491 70.5503C78.3901 70.5503 78.7325 70.5503 79.1085 70.5503C79.1085 69.1869 79.1085 67.8302 79.1085 66.4305C79.2576 66.4305 79.3704 66.4305 79.4832 66.4305C79.9343 66.4305 80.3855 66.4305 80.8367 66.4305C81.2087 66.4305 81.21 66.4305 81.21 66.817C81.21 67.9442 81.21 69.0715 81.21 70.2C81.21 70.3074 81.21 70.4134 81.21 70.5503C82.2668 70.5503 83.2994 70.5503 84.3561 70.5503C84.3561 71.2494 84.3561 71.919 84.3561 72.6115C84.2769 72.6155 84.1896 72.6249 84.1037 72.6249C83.2376 72.6262 82.3702 72.6316 81.5041 72.6222C81.2892 72.6195 81.2019 72.6692 81.206 72.904C81.2234 73.9413 81.1939 74.9786 81.2369 76.0146C81.2932 77.4115 82.5018 78.6703 83.8902 78.8407C84.0419 78.8595 84.1937 78.8783 84.3803 78.9024C84.3803 79.2406 84.3803 79.5814 84.3803 79.9209C84.3803 80.2524 84.3803 80.5838 84.3803 80.9368C83.4874 80.9395 82.6642 80.7637 81.9136 80.3423C80.5185 79.5586 79.5611 78.4193 79.2307 76.8251C79.1461 76.4145 79.1327 75.9851 79.126 75.5624C79.1112 74.67 79.1152 73.7762 79.126 72.8839C79.1287 72.6799 79.0615 72.6155 78.8615 72.6222C78.5916 72.6316 78.3203 72.6141 78.0504 72.6074C78.0491 71.9217 78.0491 71.236 78.0491 70.5503Z" fill="#4BA3A5"/>
<path d="M117.334 70.5503C117.675 70.5503 118.017 70.5503 118.393 70.5503C118.393 69.1869 118.393 67.8302 118.393 66.4305C118.542 66.4305 118.655 66.4305 118.768 66.4305C119.219 66.4305 119.67 66.4305 120.121 66.4305C120.493 66.4305 120.495 66.4305 120.495 66.817C120.495 67.9442 120.495 69.0715 120.495 70.2C120.495 70.3074 120.495 70.4134 120.495 70.5503C121.551 70.5503 122.584 70.5503 123.641 70.5503C123.641 71.2494 123.641 71.919 123.641 72.6115C123.562 72.6155 123.474 72.6249 123.388 72.6249C122.522 72.6262 121.655 72.6316 120.789 72.6222C120.574 72.6195 120.487 72.6692 120.491 72.904C120.508 73.9413 120.479 74.9786 120.522 76.0146C120.578 77.4115 121.786 78.6703 123.175 78.8407C123.327 78.8595 123.478 78.8783 123.665 78.9024C123.665 79.2406 123.665 79.5814 123.665 79.9209C123.665 80.2524 123.665 80.5838 123.665 80.9368C122.772 80.9395 121.949 80.7637 121.198 80.3423C119.803 79.5586 118.846 78.4193 118.515 76.8251C118.431 76.4145 118.417 75.9851 118.411 75.5624C118.396 74.67 118.4 73.7762 118.411 72.8839C118.413 72.6799 118.346 72.6155 118.146 72.6222C117.876 72.6316 117.605 72.6141 117.335 72.6074C117.334 71.9217 117.334 71.236 117.334 70.5503Z" fill="#4BA3A5"/>
<path d="M87.5977 70.5865H85.4573V80.9354H87.5977V70.5865Z" fill="#4BA3A5"/>
<path d="M87.5977 66.4279H85.4573V68.4891H87.5977V66.4279Z" fill="#4BA3A5"/>
<path d="M25.5782 70.5865C22.6469 70.5865 20.2715 72.9026 20.2715 75.7609C20.2715 78.6192 22.6469 80.9354 25.5782 80.9354C28.5095 80.9354 30.8849 78.6192 30.8849 75.7609C30.8849 72.9026 28.5095 70.5865 25.5782 70.5865ZM25.6319 78.9131C23.846 78.9131 22.3985 77.5014 22.3985 75.7609C22.3985 74.0204 23.846 72.6087 25.6319 72.6087C27.4178 72.6087 28.8653 74.0204 28.8653 75.7609C28.8653 77.5014 27.4178 78.9131 25.6319 78.9131Z" fill="#4BA3A5"/>
<path d="M170.429 70.5623C167.498 70.5623 165.122 72.8785 165.122 75.7368C165.122 78.5951 167.499 80.9113 170.429 80.9113C173.36 80.9113 175.736 78.5951 175.736 75.7368C175.736 72.8785 173.359 70.5623 170.429 70.5623ZM170.481 78.889C168.695 78.889 167.248 77.4773 167.248 75.7368C167.248 73.9963 168.695 72.5846 170.481 72.5846C172.267 72.5846 173.715 73.9963 173.715 75.7368C173.715 77.4773 172.267 78.889 170.481 78.889Z" fill="#4BA3A5"/>
<path d="M14.5875 78.9131C12.8459 78.9131 11.4333 77.5014 11.4333 75.7609C11.4333 74.0205 12.8459 72.6088 14.5875 72.6088C15.6765 72.6088 16.6366 73.1603 17.2032 73.999C17.2328 74.0433 17.261 74.0889 17.2878 74.1359C17.2878 74.1345 17.2878 74.1332 17.2865 74.1318L18.9865 73.1187C18.0841 71.6023 16.4271 70.5878 14.5338 70.5878C11.6736 70.5878 9.35596 72.904 9.35596 75.7623C9.35596 78.6206 11.6736 80.9368 14.5338 80.9368C16.4271 80.9368 18.0828 79.9196 18.9865 78.4032L17.3026 77.3645C16.7547 78.2905 15.745 78.9131 14.5875 78.9131Z" fill="#4BA3A5"/>
<path d="M72.2845 78.9131C70.5429 78.9131 69.1303 77.5014 69.1303 75.7609C69.1303 74.0205 70.5429 72.6088 72.2845 72.6088C73.3735 72.6088 74.3336 73.1603 74.9002 73.999C74.9298 74.0433 74.958 74.0889 74.9848 74.1359C74.9848 74.1345 74.9848 74.1332 74.9835 74.1318L76.6834 73.1187C75.7811 71.6023 74.1241 70.5878 72.2308 70.5878C69.3706 70.5878 67.053 72.904 67.053 75.7623C67.053 78.6206 69.3706 80.9368 72.2308 80.9368C74.1241 80.9368 75.7797 79.9196 76.6834 78.4032L74.9996 77.3645C74.4517 78.2905 73.442 78.9131 72.2845 78.9131Z" fill="#4BA3A5"/>
<path d="M182.106 78.889C180.364 78.889 178.952 77.4773 178.952 75.7368C178.952 73.9963 180.364 72.5846 182.106 72.5846C183.195 72.5846 184.155 73.1362 184.722 73.9749C184.751 74.0192 184.779 74.0648 184.806 74.1117C184.806 74.1104 184.806 74.1091 184.805 74.1077L186.505 73.0946C185.603 71.5782 183.946 70.5637 182.052 70.5637C179.192 70.5637 176.875 72.8799 176.875 75.7382C176.875 78.5965 179.192 80.9126 182.052 80.9126C183.946 80.9126 185.601 79.8955 186.505 78.3791L184.821 77.3404C184.273 78.2664 183.262 78.889 182.106 78.889Z" fill="#4BA3A5"/>
<path d="M64.1766 76.7486H65.8672C65.9303 76.4292 65.9652 76.0991 65.9652 75.7609C65.9652 72.9026 63.5898 70.5865 60.6585 70.5865C57.7272 70.5865 55.3518 72.9026 55.3518 75.7609C55.3518 78.6192 57.7285 80.9354 60.6585 80.9354C62.3719 80.9354 63.896 80.1423 64.8655 78.9131L63.0755 77.9107C62.4847 78.528 61.6441 78.9145 60.7109 78.9145C59.2795 78.9145 58.0656 78.0073 57.6399 76.7499H63.7805H64.1766V76.7486ZM57.6654 74.7021C58.1112 73.4823 59.3063 72.6087 60.7109 72.6087C62.1154 72.6087 63.3105 73.4823 63.7563 74.7021H57.6654Z" fill="#4BA3A5"/>
<path d="M145.281 76.7245H146.972C147.035 76.4051 147.07 76.075 147.07 75.7368C147.07 72.8785 144.694 70.5623 141.763 70.5623C138.832 70.5623 136.456 72.8785 136.456 75.7368C136.456 78.5951 138.833 80.9113 141.763 80.9113C143.476 80.9113 145 80.1182 145.97 78.889L144.18 77.8866C143.589 78.5039 142.749 78.8903 141.815 78.8903C140.384 78.8903 139.17 77.9832 138.744 76.7258H144.885H145.281V76.7245ZM138.77 74.678C139.216 73.4582 140.411 72.5846 141.815 72.5846C143.22 72.5846 144.415 73.4582 144.861 74.678H138.77Z" fill="#4BA3A5"/>
<path d="M161.937 66.4305L162.024 71.6359C161.129 70.9636 160.008 70.5623 158.79 70.5623C155.858 70.5623 153.483 72.8785 153.483 75.7368C153.483 78.5951 155.858 80.9113 158.79 80.9113C159.985 80.9113 161.087 80.5261 161.973 79.8767L161.936 80.9354L164.096 80.9113V66.4305H161.937ZM158.843 78.889C157.057 78.889 155.61 77.4773 155.61 75.7368C155.61 73.9963 157.057 72.5846 158.843 72.5846C160.629 72.5846 162.077 73.9963 162.077 75.7368C162.077 77.4773 160.629 78.889 158.843 78.889Z" fill="#4BA3A5"/>
<path d="M110.83 70.5865H108.703V71.6171C107.817 70.9689 106.716 70.5865 105.524 70.5865C102.592 70.5865 100.217 72.9026 100.217 75.7609C100.217 78.6192 102.592 80.9354 105.524 80.9354C106.716 80.9354 107.817 80.5516 108.703 79.9048V80.5744H110.739C110.332 80.5744 108.703 80.5744 108.703 80.5744C108.4 81.9553 107.343 82.539 106.767 82.7645C106.192 82.9886 105.581 82.9389 105.577 82.9376L105.599 84.9518C105.599 84.9518 106.952 84.9424 107.23 84.8498C108.059 84.5734 108.924 84.0151 109.827 82.9134C110.735 81.8077 110.83 80.5771 110.832 80.5717V70.5865H110.83ZM105.577 78.9131C103.792 78.9131 102.344 77.5014 102.344 75.7609C102.344 74.0205 103.792 72.6087 105.577 72.6087C107.363 72.6087 108.811 74.0205 108.811 75.7609C108.811 77.5014 107.362 78.9131 105.577 78.9131Z" fill="#4BA3A5"/>
<path d="M41.141 72.1123C40.4374 71.4359 38.9563 70.4751 36.8387 70.5395C35.2529 70.5865 34.0537 71.648 34.0537 71.648V70.5879H31.9133V80.9368H34.0537C34.0537 78.9252 33.9893 75.4711 34.0537 75.1383C34.5291 73.4099 36.3271 72.4142 37.9921 72.6786C39.4867 72.9161 40.4092 74.7062 40.4374 74.9947C40.5421 75.1719 40.4401 78.8595 40.4374 80.9368H42.5778C42.5778 78.8608 42.6275 75.1504 42.5778 74.9947C42.5764 74.9934 42.1602 73.0905 41.141 72.1123Z" fill="#4BA3A5"/>
<path d="M52.8595 72.1378C52.1559 71.4614 50.6748 70.5006 48.5572 70.565C46.9714 70.612 45.7722 71.6735 45.7722 71.6735V70.6133H43.6318V80.9623H45.7722C45.7722 78.9507 45.7078 75.4966 45.7722 75.1638C46.2476 73.4354 48.0456 72.4397 49.7106 72.7041C51.2052 72.9416 52.1277 74.7317 52.1559 75.0202C52.2606 75.1974 52.1586 78.885 52.1559 80.9623H54.2963C54.2963 78.8863 54.346 75.1759 54.2963 75.0202C54.2949 75.0189 53.8787 73.116 52.8595 72.1378Z" fill="#4BA3A5"/>
<path d="M97.7906 72.1378C97.087 71.4614 95.6059 70.5006 93.4883 70.565C91.9025 70.612 90.7034 71.6735 90.7034 71.6735V70.6133H88.563V80.9623H90.7034C90.7034 78.9507 90.6389 75.4966 90.7034 75.1638C91.1787 73.4354 92.9767 72.4397 94.6418 72.7041C96.1363 72.9416 97.0588 74.7317 97.087 75.0202C97.1917 75.1974 97.0897 78.885 97.087 80.9623H99.2274C99.2274 78.8863 99.2771 75.1759 99.2274 75.0202C99.2261 75.0189 98.8098 73.116 97.7906 72.1378Z" fill="#4BA3A5"/>
<path d="M135.381 75.0189C135.381 75.0189 134.965 73.116 133.945 72.1378C133.242 71.4614 131.761 70.5006 129.643 70.565C128.057 70.612 126.858 71.6735 126.858 71.6735V70.6134L126.916 66.4319H124.719V70.6134V80.9623H126.859C126.859 78.9507 126.795 75.4966 126.859 75.1638C127.335 73.4354 129.133 72.4397 130.798 72.7041C132.292 72.9416 133.215 74.7317 133.243 75.0202C133.348 75.1974 133.246 78.885 133.243 80.9623H135.383C135.381 78.885 135.43 75.1732 135.381 75.0189Z" fill="#4BA3A5"/>
<path d="M197.659 70.4258H196.944V70.1682H198.685V70.4258H197.965V72.5192H197.658V70.4258H197.659Z" fill="#4BA3A5"/>
<path d="M201.042 71.4842C201.024 71.1568 201.003 70.7623 201.007 70.4684H200.996C200.916 70.7435 200.818 71.0374 200.699 71.3621L200.284 72.5028H200.053L199.673 71.3823C199.562 71.0508 199.468 70.7475 199.401 70.4684H199.394C199.387 70.7609 199.37 71.1555 199.349 71.5084L199.285 72.5162H198.995L199.159 70.1651H199.547L199.949 71.3031C200.047 71.5929 200.127 71.8506 200.186 72.0948H200.197C200.256 71.8573 200.341 71.5997 200.446 71.3031L200.865 70.1651H201.253L201.399 72.5162H201.102L201.042 71.4842Z" fill="#4BA3A5"/>
<path d="M203.863 40.1583C203.848 40.6401 203.691 41.0802 203.335 41.4492C203.174 41.617 202.985 41.7243 202.782 41.8263C202.42 42.0075 202.042 42.0182 201.673 41.8975C201.102 41.7109 200.71 41.3204 200.52 40.7421C200.353 40.2375 200.395 39.745 200.627 39.2726C200.742 39.0378 200.913 38.8419 201.12 38.6728C201.729 38.1749 202.531 38.2608 202.966 38.5332C203.553 38.9009 203.85 39.4444 203.863 40.1583ZM202.148 38.6191C202.064 38.6272 201.978 38.6299 201.896 38.646C201.274 38.7694 200.909 39.1653 200.757 39.7598C200.576 40.4737 200.874 41.1849 201.544 41.5257C201.967 41.7405 202.41 41.7243 202.835 41.4667C203.292 41.1903 203.526 40.7823 203.57 40.2643C203.619 39.694 203.398 39.2284 202.953 38.8781C202.722 38.6983 202.444 38.6258 202.148 38.6191Z" fill="#2B333C"/>
<path d="M201.801 41.1594C201.701 41.1594 201.621 41.1594 201.532 41.1594C201.532 40.5005 201.532 39.8416 201.532 39.168C201.862 39.1183 202.199 39.0647 202.527 39.1948C202.716 39.27 202.848 39.4136 202.867 39.6283C202.887 39.8537 202.806 40.0349 202.606 40.1543C202.589 40.165 202.571 40.1771 202.554 40.1892C202.855 40.4442 202.872 40.8051 202.942 41.1581C202.848 41.1581 202.765 41.1581 202.677 41.1581C202.653 41.0453 202.641 40.9273 202.601 40.8199C202.544 40.6709 202.475 40.5233 202.39 40.3891C202.356 40.3355 202.269 40.2966 202.202 40.2885C202.074 40.2724 201.943 40.2845 201.801 40.2845C201.801 40.5703 201.801 40.8588 201.801 41.1594ZM201.803 39.372C201.803 39.6068 201.803 39.8322 201.803 40.0577C202.04 40.0926 202.249 40.0711 202.417 39.9986C202.554 39.9396 202.61 39.8484 202.608 39.69C202.605 39.5504 202.544 39.4565 202.41 39.4082C202.214 39.3384 202.01 39.3505 201.803 39.372Z" fill="#2B333C"/>
</svg>
